<svg xmlns="http://www.w3.org/2000/svg" xmlns:xlink="http://www.w3.org/1999/xlink" width="1920" zoomAndPan="magnify" viewBox="0 0 1440 809.999993" height="1080" preserveAspectRatio="xMidYMid meet" version="1.0"><defs><clipPath id="37c9d9d6f3"><path d="M 1180 549 L 1440 549 L 1440 810 L 1180 810 Z M 1180 549 " clip-rule="nonzero"/></clipPath><clipPath id="57677f58b0"><path d="M 1144.4375 607.320312 L 1569.277344 524.957031 L 1623.804688 806.21875 L 1198.964844 888.582031 Z M 1144.4375 607.320312 " clip-rule="nonzero"/></clipPath><clipPath id="731f1a43e2"><path d="M 1144.4375 607.320312 L 1569.277344 524.957031 L 1623.804688 806.21875 L 1198.964844 888.582031 Z M 1144.4375 607.320312 " clip-rule="nonzero"/></clipPath><clipPath id="2a1ad95066"><path d="M 0 551 L 243 551 L 243 810 L 0 810 Z M 0 551 " clip-rule="nonzero"/></clipPath><clipPath id="9254973be6"><path d="M -173.628906 620.398438 L 161.546875 513.699219 L 290.316406 918.195312 L -44.859375 1024.898438 Z M -173.628906 620.398438 " clip-rule="nonzero"/></clipPath><clipPath id="cd140179e1"><path d="M -173.628906 620.398438 L 161.546875 513.699219 L 290.316406 918.195312 L -44.859375 1024.898438 Z M -173.628906 620.398438 " clip-rule="nonzero"/></clipPath><clipPath id="a942e07a0a"><path d="M 0 0 L 336 0 L 336 252 L 0 252 Z M 0 0 " clip-rule="nonzero"/></clipPath><clipPath id="9c649dda76"><path d="M -53.238281 281.03125 L -106.238281 -156.769531 L 331.5625 -209.773438 L 384.566406 228.03125 Z M -53.238281 281.03125 " clip-rule="nonzero"/></clipPath><clipPath id="a7ee3b5737"><path d="M -53.238281 281.03125 L -106.238281 -156.769531 L 331.5625 -209.773438 L 384.566406 228.03125 Z M -53.238281 281.03125 " clip-rule="nonzero"/></clipPath><clipPath id="0496ad7f56"><path d="M 0 90 L 279 90 L 279 368 L 0 368 Z M 0 90 " clip-rule="nonzero"/></clipPath><clipPath id="7868a11e98"><path d="M -20.851562 385.066406 L -54.960938 93.054688 L 265.359375 55.636719 L 299.46875 347.652344 Z M -20.851562 385.066406 " clip-rule="nonzero"/></clipPath><clipPath id="04dc4c5d57"><path d="M -20.851562 385.066406 L -54.960938 93.054688 L 265.359375 55.636719 L 299.46875 347.652344 Z M -20.851562 385.066406 " clip-rule="nonzero"/></clipPath><clipPath id="428105b9a4"><path d="M 1191 0 L 1440 0 L 1440 358 L 1191 358 Z M 1191 0 " clip-rule="nonzero"/></clipPath><clipPath id="0c58e10330"><path d="M 1112.246094 265.863281 L 1216.582031 -83.382812 L 1590.265625 28.25 L 1485.925781 377.5 Z M 1112.246094 265.863281 " clip-rule="nonzero"/></clipPath><clipPath id="c56551e87f"><path d="M 1112.246094 265.863281 L 1216.582031 -83.382812 L 1590.265625 28.25 L 1485.925781 377.5 Z M 1112.246094 265.863281 " clip-rule="nonzero"/></clipPath></defs><rect x="-144" width="1728" fill="#ffffff" y="-80.999999" height="971.999992" fill-opacity="1"/><rect x="-144" width="1728" fill="#ffffff" y="-80.999999" height="971.999992" fill-opacity="1"/><g clip-path="url(#37c9d9d6f3)"><g clip-path="url(#57677f58b0)"><g clip-path="url(#731f1a43e2)"><path fill="#009fe3" d="M 1251.507812 712.320312 C 1259.070312 710.761719 1266.761719 709.84375 1274.480469 709.59375 C 1286.378906 709.109375 1298.121094 706.835938 1309.355469 702.929688 C 1319.664062 699.203125 1329.078125 693.832031 1338.183594 687.84375 C 1344.820312 683.488281 1348.476562 677.121094 1350.3125 669.761719 C 1352.621094 660.390625 1354.542969 651.003906 1356.351562 641.539062 C 1358.046875 632.960938 1358.949219 624.25 1361.859375 616.011719 C 1365.75 604.414062 1372.554688 593.984375 1381.597656 585.707031 C 1388.300781 579.707031 1394.78125 573.558594 1401.464844 567.464844 C 1406.277344 563.082031 1412.019531 560.046875 1417.964844 557.554688 C 1432.515625 551.46875 1447.492188 548.566406 1463.386719 549.898438 C 1482.105469 551.449219 1500.648438 554.570312 1518.925781 559.277344 C 1532.460938 562.792969 1544.59375 569.457031 1556.164062 577.1875 C 1562.53125 581.328125 1568.375 586.238281 1573.492188 591.863281 C 1579.238281 598.234375 1583.496094 605.847656 1585.679688 614.15625 C 1588.085938 623.089844 1590.101562 632.003906 1589.121094 641.304688 C 1587.261719 659.414062 1580.222656 675.070312 1565.621094 686.34375 C 1560.128906 690.667969 1553.792969 694.105469 1547.511719 697.335938 C 1533.65625 704.53125 1521.078125 713.875 1510.207031 725.097656 C 1501.957031 733.507812 1495.730469 743.445312 1489.742188 753.621094 C 1483.265625 764.757812 1477.105469 776.023438 1470.078125 786.789062 C 1459.9375 802.277344 1448.347656 816.710938 1434.054688 828.59375 C 1425.871094 835.359375 1417.246094 841.347656 1407.328125 845.09375 C 1390.074219 851.605469 1372.933594 851.761719 1356.289062 843.09375 C 1346.917969 838.292969 1337.84375 833.046875 1328.636719 828.117188 C 1320.371094 823.582031 1312.121094 819.136719 1302.921875 816.699219 C 1292.558594 813.71875 1281.589844 813.546875 1271.140625 816.050781 C 1263.277344 818.054688 1255.488281 820.429688 1247.753906 822.597656 C 1239.097656 824.949219 1230.316406 826.652344 1221.246094 826.394531 C 1205.164062 826.058594 1194.019531 818.050781 1186.804688 804.101562 C 1180.285156 791.265625 1179.664062 777.667969 1182.257812 763.832031 C 1183.535156 757.058594 1185.921875 750.554688 1189.28125 744.625 C 1193.945312 736.527344 1200.941406 731.046875 1209 726.605469 C 1217.933594 721.710938 1227.5 718.609375 1237.265625 716.042969 Z M 1251.507812 712.320312 " fill-opacity="1" fill-rule="nonzero"/></g></g></g><g clip-path="url(#2a1ad95066)"><g clip-path="url(#9254973be6)"><g clip-path="url(#cd140179e1)"><path fill="#004f9f" d="M -34.867188 760.636719 C -29.203125 758.21875 -24.714844 754.035156 -22.515625 748.433594 C -19.28125 741.277344 -16.777344 733.742188 -14.921875 726.105469 C -10.195312 697.644531 -6.484375 668.890625 -2.125 640.242188 C -0.296875 627.710938 1.625 615.457031 4.101562 603.03125 C 6.171875 593.179688 9.902344 583.722656 15.097656 575.023438 C 21.351562 562.921875 33.097656 554.589844 46.703125 552.09375 C 59.28125 550.234375 71.660156 556.402344 77.972656 567.566406 C 84.003906 578.816406 88.089844 590.691406 90.507812 603.09375 C 93.023438 614.851562 94.707031 626.875 96.390625 638.898438 C 98.164062 651.199219 94.851562 663.894531 86.964844 673.757812 C 82.640625 679.421875 77.496094 684.429688 72.527344 689.992188 C 64.375 699.023438 56.21875 708.050781 48.34375 716.992188 C 46.371094 719.457031 44.578125 722.480469 43.339844 725.324219 C 40.949219 731.292969 44.035156 735.210938 50.421875 734.097656 C 55.046875 733.238281 59.410156 731.542969 63.226562 729.101562 C 70.777344 723.941406 77.867188 718.3125 84.871094 712.410156 C 91.875 706.503906 98.132812 701.140625 104.214844 695.222656 C 111.695312 687.941406 119.09375 680.378906 126.210938 672.90625 C 128.925781 669.894531 131.921875 666.796875 135.097656 664.253906 C 139.585938 660.070312 146.410156 660.347656 150.597656 664.835938 C 151.050781 665.300781 151.230469 665.859375 151.597656 666.046875 C 154.050781 668.941406 155.945312 672.015625 157.097656 675.628906 C 163.269531 690.207031 164.992188 706.203125 162.289062 721.765625 C 160.773438 731.4375 155.488281 739.859375 147.386719 745.195312 C 139.558594 750.445312 130.734375 754.480469 121.378906 756.84375 C 112.945312 759.222656 104.792969 761.511719 96.449219 764.167969 C 93.667969 765.054688 91.0625 766.496094 88.546875 768.214844 C 81.921875 773.386719 82.921875 781.339844 91.015625 783.667969 C 96.351562 785.03125 101.875 786.027344 107.324219 785.824219 C 113.507812 786.003906 119.335938 785.066406 125.339844 784.683594 C 133.472656 784.242188 141.449219 781.394531 148.25 776.78125 C 161.839844 768.472656 175.0625 759.972656 188.65625 751.664062 C 194.796875 747.871094 201.488281 744.820312 208.074219 742.417969 C 219.390625 738.511719 228.570312 742.328125 234.980469 752.84375 C 239.863281 760.480469 242.050781 769.28125 242.113281 778.144531 C 241.953125 796.882812 236.53125 815.457031 226.535156 831.199219 C 214.640625 850.609375 195.890625 858.109375 174.207031 857.351562 C 161.664062 856.445312 149.132812 854.613281 136.707031 852.136719 C 128.324219 850.824219 121.089844 846.386719 114.234375 841.214844 C 110.214844 838.207031 106.09375 835.84375 101.78125 833.847656 C 94.433594 830.976562 90.617188 833.417969 89.769531 841.347656 C 88.6875 853.332031 92.429688 863.167969 103.519531 869.132812 C 117.175781 876.425781 130.640625 884.085938 145.347656 888.902344 C 154.171875 891.605469 162.605469 895.96875 170.003906 901.882812 C 179.5 909.582031 185.835938 918.898438 186.214844 931.644531 C 187.101562 941.164062 181.90625 949.863281 173.082031 953.898438 C 161.007812 959.273438 148.59375 962.613281 134.875 959.933594 C 125.757812 958.242188 116.859375 954.335938 109.550781 948.699219 C 100.316406 941.835938 92.023438 934.058594 84.386719 925.464844 C 82.386719 923.035156 80.199219 920.976562 78.480469 918.460938 C 69.703125 905.324219 57.097656 902.292969 42.203125 904.582031 C 32.859375 906.027344 23.414062 908.113281 13.894531 909 C 2.339844 910.226562 -7.308594 906.867188 -13.441406 896.257812 C -15.78125 891.796875 -16.730469 886.890625 -16.113281 882.097656 C -16.035156 876.5625 -15.40625 870.847656 -15.332031 865.308594 C -15.332031 851.832031 -21.199219 842.058594 -33.679688 836.535156 C -48.183594 830.429688 -62.6875 824.324219 -77.1875 818.222656 C -92.527344 812.382812 -106.777344 801.296875 -116.640625 786.667969 C -120.082031 781.636719 -122.6875 776.339844 -124.824219 770.585938 C -127.59375 763.8125 -125.207031 757.84375 -119.605469 753.304688 C -113.902344 748.117188 -106.484375 745.449219 -98.832031 746.382812 C -92.75 747.207031 -86.492188 748.582031 -80.132812 749.316406 C -70.460938 750.832031 -60.789062 752.347656 -51.015625 753.21875 C -45.019531 753.761719 -39.332031 756.238281 -34.867188 760.636719 Z M -34.867188 760.636719 " fill-opacity="1" fill-rule="nonzero"/></g></g></g><g clip-path="url(#a942e07a0a)"><g clip-path="url(#9c649dda76)"><g clip-path="url(#a7ee3b5737)"><path fill="#004f9f" d="M -22.171875 -67.53125 C 32.253906 -144.539062 282.183594 -248.859375 329.203125 -104.292969 C 361.046875 -6.519531 270.109375 -17.382812 170.601562 77.265625 C 137.679688 108.632812 110.667969 298.976562 1.621094 239.894531 C -62.992188 204.859375 -93.289062 33.191406 -22.171875 -67.53125 Z M -22.171875 -67.53125 " fill-opacity="1" fill-rule="nonzero"/></g></g></g><g clip-path="url(#0496ad7f56)"><g clip-path="url(#7868a11e98)"><g clip-path="url(#04dc4c5d57)"><path fill="#009fe3" d="M -1.03125 183.953125 C -7.496094 200.160156 -16.417969 237.351562 -16.542969 260.117188 C -16.703125 286 -5.625 311.570312 10.386719 329.398438 C 26.394531 347.226562 46.8125 357.90625 67.511719 363.648438 C 79.847656 367.046875 92.730469 368.859375 104.808594 365.527344 C 135.601562 357.152344 153.25 319.742188 177.019531 294.945312 C 201.90625 268.957031 207.703125 259.523438 238.652344 245.695312 C 253.527344 239.046875 269.632812 230.402344 275.472656 212.277344 C 281.316406 194.148438 278.332031 165.777344 270.976562 147.667969 C 263.519531 129.238281 231.285156 109.390625 215.539062 104.597656 C 123.957031 76.894531 39.8125 82.210938 -1.03125 183.953125 Z M 241.246094 152.070312 C 261.035156 202.820312 196.238281 218.746094 156.875 261.613281 C 117.507812 304.480469 71.269531 374.21875 45.722656 329.847656 C -45.910156 170.554688 69.34375 140.84375 126.5 121.964844 C 183.65625 103.082031 221.457031 101.320312 241.246094 152.070312 Z M 241.246094 152.070312 " fill-opacity="1" fill-rule="nonzero"/></g></g></g><g clip-path="url(#428105b9a4)"><g clip-path="url(#0c58e10330)"><g clip-path="url(#c56551e87f)"><path fill="#004f9f" d="M 1421.828125 357.015625 C 1410.359375 354.621094 1399.996094 346.652344 1394.058594 336.722656 C 1386.355469 323.925781 1387.511719 310.964844 1389.996094 296.992188 C 1392.730469 280.941406 1385.367188 264.496094 1371.40625 256.015625 C 1363.558594 251.234375 1354.585938 248.644531 1345.78125 246.109375 C 1326.65625 240.488281 1308.105469 232.324219 1302.199219 211.628906 C 1295.886719 189.78125 1312.269531 173.214844 1310.894531 152.09375 C 1309.894531 136.613281 1297.640625 123.671875 1284.878906 116.207031 C 1252.464844 97.339844 1211.511719 91.382812 1196.949219 51.980469 C 1188.75 29.851562 1190.132812 5.148438 1203.742188 -14.683594 C 1216.019531 -32.570312 1238.296875 -39.691406 1259.25 -37.367188 C 1270.3125 -36.121094 1281.308594 -32.460938 1290.914062 -26.96875 C 1301.707031 -20.746094 1312.328125 -12.699219 1325.574219 -14.367188 C 1337.371094 -15.902344 1348.027344 -23.027344 1359.644531 -25.835938 C 1373.316406 -29.25 1387.453125 -30.460938 1401.226562 -27 C 1426.054688 -20.707031 1438.039062 -2.789062 1445.359375 20.390625 C 1449.402344 33.21875 1453.40625 47.722656 1466.257812 54.277344 C 1477.488281 59.976562 1490.386719 59.144531 1502.277344 62.320312 C 1511.671875 64.753906 1520.519531 69.644531 1528.121094 75.570312 C 1543.582031 87.5 1553.886719 105.386719 1553.886719 125.160156 C 1554 150.496094 1536.210938 172.078125 1520.742188 190.605469 C 1513.410156 199.472656 1506.222656 209.414062 1503.65625 220.832031 C 1500.960938 232.679688 1502.496094 244.476562 1501.792969 256.542969 C 1500.160156 285.855469 1492.347656 312.949219 1472.503906 335.136719 C 1461.664062 347.269531 1445.714844 357.683594 1428.839844 357.703125 C 1426.484375 357.75 1424.144531 357.425781 1421.828125 357.015625 Z M 1421.828125 357.015625 " fill-opacity="1" fill-rule="nonzero"/></g></g></g></svg>