<svg xmlns="http://www.w3.org/2000/svg" xmlns:xlink="http://www.w3.org/1999/xlink" width="100" zoomAndPan="magnify" viewBox="0 0 75 74.999997" height="100" preserveAspectRatio="xMidYMid meet" version="1.0"><defs><clipPath id="9d1edaf929"><path d="M 2.148438 21.507812 L 41.226562 21.507812 L 41.226562 52.054688 L 2.148438 52.054688 Z M 2.148438 21.507812 " clip-rule="nonzero"/></clipPath><clipPath id="bff7534724"><path d="M 31.917969 23.386719 C 30.171875 25.234375 29.035156 27.335938 27.9375 29.367188 C 27.457031 30.253906 26.960938 31.171875 26.421875 32.050781 C 25.253906 33.953125 22.957031 37.148438 20.675781 37.148438 C 20.199219 37.148438 19.753906 37.007812 19.3125 36.71875 C 18.289062 36.054688 17.324219 34.769531 16.472656 33.632812 C 16.019531 33.027344 15.589844 32.453125 15.1875 32.027344 C 14.933594 31.753906 14.71875 31.503906 14.527344 31.285156 C 13.875 30.523438 13.359375 29.921875 12.050781 29.453125 C 11.523438 29.265625 10.894531 29.164062 10.28125 29.164062 C 8.023438 29.164062 6.164062 30.460938 5.1875 32.71875 C 3.601562 36.382812 2.234375 44.828125 2.152344 47.671875 C 2.148438 48.390625 2.414062 49.039062 2.921875 49.546875 C 3.515625 50.148438 4.382812 50.480469 5.351562 50.480469 C 5.558594 50.480469 5.773438 50.464844 5.988281 50.433594 C 8.027344 50.136719 9.691406 48.472656 9.699219 46.714844 C 9.671875 42.347656 7.894531 40.199219 8.003906 37.5625 C 8.105469 35.109375 9.171875 30.894531 11.671875 31.371094 C 13.984375 31.8125 15.167969 33.824219 16.90625 38.835938 C 17.058594 39.269531 17.167969 39.585938 17.238281 39.75 L 17.269531 39.824219 C 17.992188 41.488281 19.199219 44.277344 21.882812 44.277344 C 22.113281 44.277344 22.34375 44.253906 22.582031 44.210938 C 25.402344 43.714844 26.128906 41.40625 26.828125 39.171875 C 26.933594 38.835938 27.039062 38.496094 27.152344 38.164062 C 27.511719 37.109375 27.832031 35.875 28.171875 34.566406 C 28.632812 32.785156 29.113281 30.941406 29.707031 29.53125 C 30.734375 27.109375 31.203125 26.0625 32.585938 24.425781 C 33.449219 23.398438 34.660156 22.808594 35.910156 22.808594 C 37.390625 22.808594 38.5625 23.605469 38.894531 24.839844 C 39.097656 25.613281 39.136719 26.527344 38.996094 27.222656 C 38.425781 30.074219 36.328125 33.996094 34.144531 37.804688 C 33.679688 38.617188 33.242188 39.347656 32.859375 39.992188 C 31.109375 42.914062 28.699219 46.714844 29.113281 49.304688 C 29.417969 51.210938 36.351562 52.054688 38.316406 52.054688 C 38.570312 52.054688 38.78125 52.011719 38.957031 51.925781 C 40.375 51.246094 39.65625 48.667969 39.179688 46.964844 C 39.09375 46.660156 39.019531 46.394531 38.988281 46.234375 C 38.574219 44.15625 38.734375 41.769531 39.507812 38.714844 L 39.53125 38.621094 C 40.355469 35.351562 41.207031 31.976562 41.21875 28.683594 C 41.230469 25.609375 40.40625 23.4375 38.765625 22.222656 C 38.132812 21.757812 37.304688 21.507812 36.363281 21.507812 C 34.742188 21.507812 32.996094 22.242188 31.917969 23.386719 " clip-rule="nonzero"/></clipPath><radialGradient gradientTransform="matrix(0.997958, 0, 0, -1.002042, 10933.379464, 14332.562827)" gradientUnits="userSpaceOnUse" r="22.072252" cx="-10934.08184" id="bf9521326e" cy="14255.245966" fx="-10934.08184" fy="14255.245966"><stop stop-opacity="1" stop-color="rgb(0%, 62.399292%, 88.999939%)" offset="0"/><stop stop-opacity="1" stop-color="rgb(0%, 62.275696%, 88.894653%)" offset="0.5"/><stop stop-opacity="1" stop-color="rgb(0%, 62.030029%, 88.687134%)" offset="0.503906"/><stop stop-opacity="1" stop-color="rgb(0%, 61.785889%, 88.479614%)" offset="0.507812"/><stop stop-opacity="1" stop-color="rgb(0%, 61.540222%, 88.272095%)" offset="0.511719"/><stop stop-opacity="1" stop-color="rgb(0%, 61.294556%, 88.064575%)" offset="0.515625"/><stop stop-opacity="1" stop-color="rgb(0%, 61.048889%, 87.85553%)" offset="0.519531"/><stop stop-opacity="1" stop-color="rgb(0%, 60.804749%, 87.64801%)" offset="0.523438"/><stop stop-opacity="1" stop-color="rgb(0%, 60.559082%, 87.440491%)" offset="0.527344"/><stop stop-opacity="1" stop-color="rgb(0%, 60.313416%, 87.232971%)" offset="0.53125"/><stop stop-opacity="1" stop-color="rgb(0%, 60.067749%, 87.025452%)" offset="0.535156"/><stop stop-opacity="1" stop-color="rgb(0%, 59.823608%, 86.816406%)" offset="0.539062"/><stop stop-opacity="1" stop-color="rgb(0%, 59.577942%, 86.608887%)" offset="0.542969"/><stop stop-opacity="1" stop-color="rgb(0%, 59.332275%, 86.401367%)" offset="0.546875"/><stop stop-opacity="1" stop-color="rgb(0%, 59.086609%, 86.193848%)" offset="0.550781"/><stop stop-opacity="1" stop-color="rgb(0%, 58.840942%, 85.986328%)" offset="0.554688"/><stop stop-opacity="1" stop-color="rgb(0%, 58.596802%, 85.777283%)" offset="0.558594"/><stop stop-opacity="1" stop-color="rgb(0%, 58.351135%, 85.569763%)" offset="0.5625"/><stop stop-opacity="1" stop-color="rgb(0%, 58.105469%, 85.362244%)" offset="0.566406"/><stop stop-opacity="1" stop-color="rgb(0%, 57.859802%, 85.154724%)" offset="0.570312"/><stop stop-opacity="1" stop-color="rgb(0%, 57.615662%, 84.947205%)" offset="0.574219"/><stop stop-opacity="1" stop-color="rgb(0%, 57.369995%, 84.739685%)" offset="0.578125"/><stop stop-opacity="1" stop-color="rgb(0%, 57.124329%, 84.53064%)" offset="0.582031"/><stop stop-opacity="1" stop-color="rgb(0%, 56.878662%, 84.32312%)" offset="0.585938"/><stop stop-opacity="1" stop-color="rgb(0%, 56.634521%, 84.115601%)" offset="0.589844"/><stop stop-opacity="1" stop-color="rgb(0%, 56.388855%, 83.908081%)" offset="0.59375"/><stop stop-opacity="1" stop-color="rgb(0%, 56.143188%, 83.700562%)" offset="0.597656"/><stop stop-opacity="1" stop-color="rgb(0%, 55.897522%, 83.491516%)" offset="0.601562"/><stop stop-opacity="1" stop-color="rgb(0%, 55.651855%, 83.283997%)" offset="0.605469"/><stop stop-opacity="1" stop-color="rgb(0%, 55.407715%, 83.076477%)" offset="0.609375"/><stop stop-opacity="1" stop-color="rgb(0%, 55.162048%, 82.868958%)" offset="0.613281"/><stop stop-opacity="1" stop-color="rgb(0%, 54.916382%, 82.661438%)" offset="0.617188"/><stop stop-opacity="1" stop-color="rgb(0%, 54.670715%, 82.452393%)" offset="0.621094"/><stop stop-opacity="1" stop-color="rgb(0%, 54.426575%, 82.244873%)" offset="0.625"/><stop stop-opacity="1" stop-color="rgb(0%, 54.180908%, 82.037354%)" offset="0.628906"/><stop stop-opacity="1" stop-color="rgb(0%, 53.935242%, 81.829834%)" offset="0.632812"/><stop stop-opacity="1" stop-color="rgb(0%, 53.689575%, 81.622314%)" offset="0.636719"/><stop stop-opacity="1" stop-color="rgb(0%, 53.445435%, 81.413269%)" offset="0.640625"/><stop stop-opacity="1" stop-color="rgb(0%, 53.199768%, 81.20575%)" offset="0.644531"/><stop stop-opacity="1" stop-color="rgb(0%, 52.954102%, 80.99823%)" offset="0.648438"/><stop stop-opacity="1" stop-color="rgb(0%, 52.708435%, 80.79071%)" offset="0.652344"/><stop stop-opacity="1" stop-color="rgb(0%, 52.462769%, 80.583191%)" offset="0.65625"/><stop stop-opacity="1" stop-color="rgb(0%, 52.218628%, 80.374146%)" offset="0.660156"/><stop stop-opacity="1" stop-color="rgb(0%, 51.972961%, 80.166626%)" offset="0.664062"/><stop stop-opacity="1" stop-color="rgb(0%, 51.727295%, 79.959106%)" offset="0.667969"/><stop stop-opacity="1" stop-color="rgb(0%, 51.481628%, 79.751587%)" offset="0.671875"/><stop stop-opacity="1" stop-color="rgb(0%, 51.237488%, 79.544067%)" offset="0.675781"/><stop stop-opacity="1" stop-color="rgb(0%, 50.991821%, 79.336548%)" offset="0.679688"/><stop stop-opacity="1" stop-color="rgb(0%, 50.746155%, 79.127502%)" offset="0.683594"/><stop stop-opacity="1" stop-color="rgb(0%, 50.500488%, 78.919983%)" offset="0.6875"/><stop stop-opacity="1" stop-color="rgb(0%, 50.256348%, 78.712463%)" offset="0.691406"/><stop stop-opacity="1" stop-color="rgb(0%, 50.010681%, 78.504944%)" offset="0.695312"/><stop stop-opacity="1" stop-color="rgb(0%, 49.765015%, 78.297424%)" offset="0.699219"/><stop stop-opacity="1" stop-color="rgb(0%, 49.519348%, 78.088379%)" offset="0.703125"/><stop stop-opacity="1" stop-color="rgb(0%, 49.273682%, 77.880859%)" offset="0.707031"/><stop stop-opacity="1" stop-color="rgb(0%, 49.029541%, 77.67334%)" offset="0.710938"/><stop stop-opacity="1" stop-color="rgb(0%, 48.783875%, 77.46582%)" offset="0.714844"/><stop stop-opacity="1" stop-color="rgb(0%, 48.538208%, 77.258301%)" offset="0.71875"/><stop stop-opacity="1" stop-color="rgb(0%, 48.292542%, 77.049255%)" offset="0.722656"/><stop stop-opacity="1" stop-color="rgb(0%, 48.048401%, 76.841736%)" offset="0.726562"/><stop stop-opacity="1" stop-color="rgb(0%, 47.802734%, 76.634216%)" offset="0.730469"/><stop stop-opacity="1" stop-color="rgb(0%, 47.557068%, 76.426697%)" offset="0.734375"/><stop stop-opacity="1" stop-color="rgb(0%, 47.311401%, 76.219177%)" offset="0.738281"/><stop stop-opacity="1" stop-color="rgb(0%, 47.067261%, 76.010132%)" offset="0.742188"/><stop stop-opacity="1" stop-color="rgb(0%, 46.821594%, 75.802612%)" offset="0.746094"/><stop stop-opacity="1" stop-color="rgb(0%, 46.575928%, 75.595093%)" offset="0.75"/><stop stop-opacity="1" stop-color="rgb(0%, 46.330261%, 75.387573%)" offset="0.753906"/><stop stop-opacity="1" stop-color="rgb(0%, 46.086121%, 75.180054%)" offset="0.757812"/><stop stop-opacity="1" stop-color="rgb(0%, 45.840454%, 74.971008%)" offset="0.761719"/><stop stop-opacity="1" stop-color="rgb(0%, 45.594788%, 74.763489%)" offset="0.765625"/><stop stop-opacity="1" stop-color="rgb(0%, 45.349121%, 74.555969%)" offset="0.769531"/><stop stop-opacity="1" stop-color="rgb(0%, 45.103455%, 74.34845%)" offset="0.773438"/><stop stop-opacity="1" stop-color="rgb(0%, 44.859314%, 74.14093%)" offset="0.777344"/><stop stop-opacity="1" stop-color="rgb(0%, 44.613647%, 73.933411%)" offset="0.78125"/><stop stop-opacity="1" stop-color="rgb(0%, 44.367981%, 73.724365%)" offset="0.785156"/><stop stop-opacity="1" stop-color="rgb(0%, 44.122314%, 73.516846%)" offset="0.789062"/><stop stop-opacity="1" stop-color="rgb(0%, 43.878174%, 73.309326%)" offset="0.792969"/><stop stop-opacity="1" stop-color="rgb(0%, 43.632507%, 73.101807%)" offset="0.796875"/><stop stop-opacity="1" stop-color="rgb(0%, 43.386841%, 72.894287%)" offset="0.800781"/><stop stop-opacity="1" stop-color="rgb(0%, 43.141174%, 72.685242%)" offset="0.804688"/><stop stop-opacity="1" stop-color="rgb(0%, 42.897034%, 72.477722%)" offset="0.808594"/><stop stop-opacity="1" stop-color="rgb(0%, 42.651367%, 72.270203%)" offset="0.8125"/><stop stop-opacity="1" stop-color="rgb(0%, 42.405701%, 72.062683%)" offset="0.816406"/><stop stop-opacity="1" stop-color="rgb(0%, 42.160034%, 71.855164%)" offset="0.820312"/><stop stop-opacity="1" stop-color="rgb(0%, 41.914368%, 71.646118%)" offset="0.824219"/><stop stop-opacity="1" stop-color="rgb(0%, 41.670227%, 71.438599%)" offset="0.828125"/><stop stop-opacity="1" stop-color="rgb(0%, 41.424561%, 71.231079%)" offset="0.832031"/><stop stop-opacity="1" stop-color="rgb(0%, 41.178894%, 71.02356%)" offset="0.835938"/><stop stop-opacity="1" stop-color="rgb(0%, 40.933228%, 70.81604%)" offset="0.839844"/><stop stop-opacity="1" stop-color="rgb(0%, 40.689087%, 70.606995%)" offset="0.84375"/><stop stop-opacity="1" stop-color="rgb(0%, 40.44342%, 70.399475%)" offset="0.847656"/><stop stop-opacity="1" stop-color="rgb(0%, 40.197754%, 70.191956%)" offset="0.851562"/><stop stop-opacity="1" stop-color="rgb(0%, 39.952087%, 69.984436%)" offset="0.855469"/><stop stop-opacity="1" stop-color="rgb(0%, 39.707947%, 69.776917%)" offset="0.859375"/><stop stop-opacity="1" stop-color="rgb(0%, 39.46228%, 69.567871%)" offset="0.863281"/><stop stop-opacity="1" stop-color="rgb(0%, 39.216614%, 69.360352%)" offset="0.867188"/><stop stop-opacity="1" stop-color="rgb(0%, 38.970947%, 69.152832%)" offset="0.871094"/><stop stop-opacity="1" stop-color="rgb(0%, 38.725281%, 68.945312%)" offset="0.875"/><stop stop-opacity="1" stop-color="rgb(0%, 38.48114%, 68.737793%)" offset="0.878906"/><stop stop-opacity="1" stop-color="rgb(0%, 38.235474%, 68.530273%)" offset="0.882812"/><stop stop-opacity="1" stop-color="rgb(0%, 37.989807%, 68.321228%)" offset="0.886719"/><stop stop-opacity="1" stop-color="rgb(0%, 37.744141%, 68.113708%)" offset="0.890625"/><stop stop-opacity="1" stop-color="rgb(0%, 37.5%, 67.906189%)" offset="0.894531"/><stop stop-opacity="1" stop-color="rgb(0%, 37.254333%, 67.698669%)" offset="0.898438"/><stop stop-opacity="1" stop-color="rgb(0%, 37.008667%, 67.49115%)" offset="0.902344"/><stop stop-opacity="1" stop-color="rgb(0%, 36.763%, 67.282104%)" offset="0.90625"/><stop stop-opacity="1" stop-color="rgb(0%, 36.51886%, 67.074585%)" offset="0.910156"/><stop stop-opacity="1" stop-color="rgb(0%, 36.273193%, 66.867065%)" offset="0.914062"/><stop stop-opacity="1" stop-color="rgb(0%, 36.027527%, 66.659546%)" offset="0.917969"/><stop stop-opacity="1" stop-color="rgb(0%, 35.78186%, 66.452026%)" offset="0.921875"/><stop stop-opacity="1" stop-color="rgb(0%, 35.536194%, 66.242981%)" offset="0.925781"/><stop stop-opacity="1" stop-color="rgb(0%, 35.292053%, 66.035461%)" offset="0.929688"/><stop stop-opacity="1" stop-color="rgb(0%, 35.046387%, 65.827942%)" offset="0.933594"/><stop stop-opacity="1" stop-color="rgb(0%, 34.80072%, 65.620422%)" offset="0.9375"/><stop stop-opacity="1" stop-color="rgb(0%, 34.555054%, 65.412903%)" offset="0.941406"/><stop stop-opacity="1" stop-color="rgb(0%, 34.310913%, 65.203857%)" offset="0.945312"/><stop stop-opacity="1" stop-color="rgb(0%, 34.065247%, 64.996338%)" offset="0.949219"/><stop stop-opacity="1" stop-color="rgb(0%, 33.81958%, 64.788818%)" offset="0.953125"/><stop stop-opacity="1" stop-color="rgb(0%, 33.573914%, 64.581299%)" offset="0.957031"/><stop stop-opacity="1" stop-color="rgb(0%, 33.329773%, 64.373779%)" offset="0.960938"/><stop stop-opacity="1" stop-color="rgb(0%, 33.084106%, 64.16626%)" offset="0.964844"/><stop stop-opacity="1" stop-color="rgb(0%, 32.83844%, 63.957214%)" offset="0.96875"/><stop stop-opacity="1" stop-color="rgb(0%, 32.592773%, 63.749695%)" offset="0.972656"/><stop stop-opacity="1" stop-color="rgb(0%, 32.348633%, 63.542175%)" offset="0.976562"/><stop stop-opacity="1" stop-color="rgb(0%, 32.102966%, 63.334656%)" offset="0.980469"/><stop stop-opacity="1" stop-color="rgb(0%, 31.8573%, 63.127136%)" offset="0.984375"/><stop stop-opacity="1" stop-color="rgb(0%, 31.611633%, 62.918091%)" offset="0.988281"/><stop stop-opacity="1" stop-color="rgb(0%, 31.365967%, 62.710571%)" offset="0.992188"/><stop stop-opacity="1" stop-color="rgb(0%, 31.121826%, 62.503052%)" offset="0.996094"/><stop stop-opacity="1" stop-color="rgb(0%, 30.999756%, 62.399292%)" offset="1"/></radialGradient></defs><path fill="#009fe3" d="M 45.472656 49.410156 C 45.3125 49.28125 45.246094 49.128906 45.265625 48.957031 C 45.289062 48.789062 45.355469 48.628906 45.476562 48.480469 C 45.59375 48.335938 45.742188 48.21875 45.917969 48.132812 C 46.09375 48.050781 46.261719 48.023438 46.421875 48.058594 C 46.78125 48.058594 47.066406 48.179688 47.277344 48.421875 C 47.488281 48.664062 47.585938 48.976562 47.5625 49.359375 C 47.554688 49.539062 47.535156 49.742188 47.5 49.980469 C 47.460938 50.21875 47.398438 50.445312 47.316406 50.664062 C 47.230469 50.882812 47.113281 51.078125 46.96875 51.257812 C 46.820312 51.4375 46.636719 51.554688 46.414062 51.617188 C 46.113281 51.699219 45.78125 51.753906 45.414062 51.777344 C 45.050781 51.804688 44.691406 51.820312 44.332031 51.820312 C 43.972656 51.820312 43.636719 51.8125 43.3125 51.800781 C 42.988281 51.785156 42.722656 51.773438 42.507812 51.757812 C 42.265625 51.769531 42.042969 51.753906 41.847656 51.707031 C 41.648438 51.660156 41.496094 51.585938 41.386719 51.480469 C 41.277344 51.378906 41.222656 51.253906 41.21875 51.113281 C 41.214844 50.96875 41.289062 50.8125 41.441406 50.640625 C 41.535156 50.53125 41.640625 50.4375 41.761719 50.347656 C 41.878906 50.265625 41.949219 50.160156 41.972656 50.035156 C 42.046875 49.679688 42.125 49.3125 42.210938 48.9375 C 42.292969 48.5625 42.378906 48.1875 42.460938 47.820312 C 42.542969 47.453125 42.613281 47.089844 42.675781 46.734375 C 42.734375 46.378906 42.78125 46.042969 42.808594 45.726562 C 42.796875 45.589844 42.75 45.476562 42.664062 45.390625 C 42.582031 45.300781 42.515625 45.207031 42.460938 45.113281 C 42.34375 44.875 42.34375 44.65625 42.460938 44.46875 C 42.574219 44.277344 42.78125 44.140625 43.074219 44.058594 C 43.453125 43.953125 43.828125 43.902344 44.191406 43.898438 C 44.554688 43.898438 44.910156 43.9375 45.257812 44.019531 C 45.597656 44.09375 45.796875 44.246094 45.851562 44.480469 C 45.90625 44.710938 45.789062 44.964844 45.503906 45.238281 C 45.359375 45.359375 45.242188 45.476562 45.148438 45.585938 C 45.054688 45.695312 44.988281 45.839844 44.953125 46.023438 C 44.859375 46.507812 44.761719 47.027344 44.65625 47.574219 C 44.554688 48.121094 44.464844 48.636719 44.382812 49.121094 C 44.363281 49.28125 44.351562 49.433594 44.355469 49.585938 C 44.359375 49.742188 44.386719 49.878906 44.433594 50.003906 C 44.480469 50.128906 44.554688 50.222656 44.65625 50.292969 C 44.761719 50.359375 44.894531 50.386719 45.054688 50.371094 C 45.246094 50.386719 45.429688 50.328125 45.601562 50.199219 C 45.773438 50.070312 45.910156 49.917969 46.007812 49.742188 C 46.101562 49.570312 46.144531 49.402344 46.132812 49.238281 C 46.125 49.078125 46.035156 48.972656 45.863281 48.925781 C 45.734375 48.941406 45.648438 49.003906 45.597656 49.109375 C 45.542969 49.222656 45.503906 49.320312 45.472656 49.410156 Z M 45.472656 49.410156 " fill-opacity="1" fill-rule="nonzero"/><path fill="#009fe3" d="M 53.476562 50.199219 C 53.460938 50.417969 53.40625 50.613281 53.300781 50.792969 C 53.199219 50.972656 53.070312 51.125 52.917969 51.246094 C 52.769531 51.367188 52.597656 51.460938 52.414062 51.527344 C 52.230469 51.59375 52.054688 51.617188 51.886719 51.601562 C 51.71875 51.589844 51.570312 51.53125 51.433594 51.433594 C 51.296875 51.332031 51.195312 51.1875 51.136719 50.988281 C 50.808594 51.195312 50.476562 51.339844 50.132812 51.421875 C 49.789062 51.507812 49.46875 51.527344 49.175781 51.472656 C 48.882812 51.421875 48.636719 51.296875 48.433594 51.097656 C 48.226562 50.902344 48.105469 50.617188 48.066406 50.25 C 48.03125 49.796875 48.074219 49.34375 48.195312 48.890625 C 48.3125 48.433594 48.5 48.023438 48.761719 47.65625 C 49.019531 47.285156 49.339844 46.976562 49.726562 46.726562 C 50.109375 46.476562 50.546875 46.332031 51.035156 46.292969 C 51.210938 46.300781 51.386719 46.347656 51.554688 46.441406 C 51.722656 46.53125 51.867188 46.605469 51.996094 46.660156 C 52.113281 46.523438 52.242188 46.433594 52.382812 46.386719 C 52.527344 46.339844 52.671875 46.304688 52.824219 46.292969 C 53.0625 46.28125 53.246094 46.339844 53.378906 46.472656 C 53.511719 46.605469 53.558594 46.785156 53.527344 47.007812 C 53.429688 47.542969 53.3125 48.074219 53.175781 48.601562 C 53.035156 49.128906 52.925781 49.628906 52.851562 50.105469 C 52.863281 50.152344 52.875 50.203125 52.882812 50.253906 C 52.890625 50.304688 52.925781 50.335938 52.996094 50.339844 C 53.0625 50.339844 53.109375 50.316406 53.136719 50.269531 C 53.160156 50.222656 53.183594 50.175781 53.210938 50.125 C 53.230469 50.015625 53.257812 49.945312 53.292969 49.910156 C 53.328125 49.875 53.359375 49.867188 53.394531 49.882812 C 53.429688 49.898438 53.453125 49.9375 53.46875 49.996094 C 53.488281 50.058594 53.492188 50.121094 53.476562 50.199219 Z M 51.609375 47.890625 C 51.527344 47.859375 51.425781 47.832031 51.308594 47.820312 C 51.1875 47.808594 51.066406 47.808594 50.945312 47.820312 C 50.820312 47.832031 50.707031 47.867188 50.605469 47.914062 C 50.5 47.960938 50.414062 48.027344 50.355469 48.109375 C 50.125 48.347656 49.964844 48.601562 49.878906 48.867188 C 49.796875 49.132812 49.78125 49.367188 49.832031 49.5625 C 49.867188 49.722656 49.941406 49.820312 50.058594 49.863281 C 50.171875 49.902344 50.300781 49.902344 50.445312 49.867188 C 50.589844 49.832031 50.730469 49.765625 50.875 49.671875 C 51.019531 49.578125 51.132812 49.480469 51.210938 49.371094 C 51.273438 49.082031 51.34375 48.828125 51.421875 48.605469 C 51.5 48.382812 51.5625 48.144531 51.609375 47.890625 Z M 51.609375 47.890625 " fill-opacity="1" fill-rule="nonzero"/><path fill="#009fe3" d="M 61.289062 49.214844 C 61.1875 49.480469 61.167969 49.707031 61.234375 49.890625 C 61.300781 50.074219 61.40625 50.203125 61.558594 50.273438 C 61.707031 50.347656 61.875 50.355469 62.058594 50.308594 C 62.242188 50.257812 62.398438 50.128906 62.527344 49.933594 C 62.519531 49.910156 62.5 49.894531 62.46875 49.878906 C 62.433594 49.863281 62.40625 49.835938 62.386719 49.800781 C 62.332031 49.78125 62.308594 49.753906 62.320312 49.71875 C 62.332031 49.683594 62.355469 49.652344 62.390625 49.621094 C 62.425781 49.589844 62.46875 49.5625 62.519531 49.539062 C 62.566406 49.515625 62.609375 49.503906 62.644531 49.503906 C 62.8125 49.460938 62.996094 49.4375 63.195312 49.425781 C 63.390625 49.417969 63.570312 49.429688 63.734375 49.46875 C 63.894531 49.507812 64.03125 49.574219 64.132812 49.667969 C 64.234375 49.765625 64.277344 49.902344 64.253906 50.082031 C 64.132812 50.445312 63.929688 50.742188 63.636719 50.984375 C 63.347656 51.222656 63.023438 51.398438 62.667969 51.507812 C 62.308594 51.617188 61.941406 51.664062 61.566406 51.648438 C 61.191406 51.628906 60.859375 51.550781 60.566406 51.40625 C 60.199219 51.246094 59.921875 51.023438 59.746094 50.726562 C 59.5625 50.433594 59.464844 50.09375 59.441406 49.703125 C 59.429688 49.347656 59.464844 48.988281 59.546875 48.632812 C 59.625 48.273438 59.753906 47.9375 59.933594 47.625 C 60.109375 47.316406 60.335938 47.042969 60.617188 46.808594 C 60.894531 46.570312 61.226562 46.402344 61.609375 46.296875 C 61.921875 46.230469 62.230469 46.195312 62.53125 46.195312 C 62.835938 46.195312 63.117188 46.238281 63.375 46.320312 C 63.632812 46.402344 63.863281 46.523438 64.058594 46.6875 C 64.253906 46.851562 64.402344 47.058594 64.496094 47.3125 C 64.558594 47.46875 64.59375 47.636719 64.605469 47.816406 C 64.613281 47.996094 64.589844 48.171875 64.539062 48.347656 C 64.457031 48.574219 64.347656 48.746094 64.207031 48.867188 C 64.066406 48.984375 63.878906 49.0625 63.640625 49.097656 C 63.257812 49.167969 62.859375 49.199219 62.449219 49.199219 C 62.035156 49.199219 61.652344 49.199219 61.289062 49.214844 Z M 63.027344 48.207031 C 63.085938 48.023438 63.097656 47.867188 63.058594 47.738281 C 63.015625 47.605469 62.945312 47.507812 62.847656 47.4375 C 62.746094 47.371094 62.628906 47.332031 62.492188 47.332031 C 62.351562 47.328125 62.21875 47.355469 62.085938 47.421875 C 61.957031 47.488281 61.84375 47.585938 61.746094 47.71875 C 61.644531 47.855469 61.582031 48.023438 61.558594 48.230469 C 61.660156 48.230469 61.773438 48.226562 61.902344 48.222656 C 62.03125 48.222656 62.164062 48.21875 62.296875 48.21875 C 62.429688 48.21875 62.5625 48.214844 62.691406 48.214844 C 62.820312 48.210938 62.929688 48.207031 63.027344 48.207031 Z M 63.027344 48.207031 " fill-opacity="1" fill-rule="nonzero"/><path fill="#009fe3" d="M 66.261719 49.5625 C 66.132812 49.746094 66.070312 49.898438 66.078125 50.023438 C 66.085938 50.144531 66.167969 50.253906 66.324219 50.351562 C 66.425781 50.414062 66.554688 50.460938 66.714844 50.5 C 66.875 50.535156 67.035156 50.550781 67.191406 50.535156 C 67.347656 50.523438 67.488281 50.476562 67.621094 50.394531 C 67.75 50.316406 67.835938 50.195312 67.875 50.023438 C 67.917969 49.824219 67.863281 49.679688 67.710938 49.589844 C 67.496094 49.507812 67.285156 49.433594 67.085938 49.371094 C 66.882812 49.304688 66.695312 49.242188 66.519531 49.175781 C 66.339844 49.109375 66.171875 49.039062 66.007812 48.96875 C 65.84375 48.898438 65.691406 48.8125 65.546875 48.71875 C 65.351562 48.546875 65.230469 48.347656 65.191406 48.117188 C 65.148438 47.890625 65.167969 47.65625 65.242188 47.425781 C 65.316406 47.195312 65.445312 46.976562 65.625 46.769531 C 65.804688 46.566406 66.019531 46.402344 66.261719 46.289062 C 66.457031 46.179688 66.722656 46.09375 67.054688 46.03125 C 67.386719 45.972656 67.730469 45.949219 68.089844 45.972656 C 68.453125 45.992188 68.796875 46.0625 69.125 46.183594 C 69.457031 46.300781 69.71875 46.488281 69.917969 46.742188 C 70.035156 46.902344 70.070312 47.089844 70.03125 47.300781 C 69.988281 47.507812 69.878906 47.695312 69.695312 47.859375 C 69.59375 47.9375 69.480469 48.003906 69.355469 48.050781 C 69.230469 48.101562 69.101562 48.128906 68.976562 48.140625 C 68.851562 48.148438 68.726562 48.140625 68.609375 48.113281 C 68.492188 48.085938 68.390625 48.035156 68.308594 47.960938 C 68.179688 47.84375 68.125 47.703125 68.144531 47.539062 C 68.160156 47.457031 68.160156 47.375 68.140625 47.300781 C 68.125 47.21875 68.078125 47.164062 68 47.128906 C 67.878906 47.070312 67.75 47.0625 67.613281 47.109375 C 67.476562 47.15625 67.363281 47.226562 67.277344 47.324219 C 67.1875 47.421875 67.136719 47.53125 67.125 47.65625 C 67.113281 47.777344 67.167969 47.882812 67.289062 47.972656 C 67.390625 48.054688 67.5 48.117188 67.621094 48.164062 C 67.738281 48.207031 67.859375 48.246094 67.984375 48.277344 C 68.105469 48.308594 68.226562 48.335938 68.351562 48.367188 C 68.472656 48.398438 68.589844 48.433594 68.707031 48.476562 C 69 48.570312 69.238281 48.722656 69.417969 48.921875 C 69.597656 49.125 69.707031 49.386719 69.738281 49.71875 C 69.761719 49.875 69.742188 50.039062 69.691406 50.214844 C 69.636719 50.386719 69.5625 50.558594 69.464844 50.722656 C 69.371094 50.886719 69.253906 51.035156 69.125 51.171875 C 68.988281 51.308594 68.855469 51.414062 68.71875 51.492188 C 68.542969 51.609375 68.296875 51.699219 67.980469 51.769531 C 67.664062 51.835938 67.328125 51.875 66.96875 51.882812 C 66.613281 51.890625 66.265625 51.863281 65.925781 51.804688 C 65.582031 51.746094 65.304688 51.648438 65.085938 51.511719 C 64.929688 51.453125 64.808594 51.355469 64.71875 51.21875 C 64.628906 51.085938 64.574219 50.941406 64.550781 50.78125 C 64.527344 50.621094 64.542969 50.457031 64.59375 50.289062 C 64.644531 50.121094 64.734375 49.972656 64.863281 49.84375 C 64.953125 49.75 65.058594 49.667969 65.179688 49.613281 C 65.304688 49.554688 65.429688 49.511719 65.566406 49.488281 C 65.699219 49.464844 65.824219 49.457031 65.949219 49.472656 C 66.058594 49.484375 66.167969 49.515625 66.261719 49.5625 Z M 66.261719 49.5625 " fill-opacity="1" fill-rule="nonzero"/><path fill="#009fe3" d="M 70.015625 50.949219 C 69.957031 51.253906 69.820312 51.746094 69.453125 52.222656 C 69.191406 52.566406 68.917969 52.761719 68.84375 52.8125 C 68.359375 53.144531 67.894531 53.21875 67.535156 53.273438 C 66.945312 53.363281 66.488281 53.304688 66.179688 53.265625 C 65.914062 53.226562 65.445312 53.15625 64.886719 52.902344 C 64.53125 52.738281 64.261719 52.554688 64.070312 52.410156 C 63.863281 52.546875 63.554688 52.722656 63.152344 52.855469 C 62.609375 53.03125 62.164062 53.03125 61.769531 53.039062 C 61.359375 53.046875 61.0625 53.007812 60.472656 52.933594 C 60.105469 52.886719 59.875 52.84375 59.582031 52.75 C 59.574219 52.746094 59.5625 52.742188 59.558594 52.742188 C 59.445312 52.703125 59.339844 52.664062 59.238281 52.617188 C 59.230469 52.617188 59.226562 52.609375 59.21875 52.609375 C 59.203125 52.601562 59.1875 52.59375 59.167969 52.585938 C 59.078125 52.539062 59.003906 52.5 58.957031 52.472656 C 58.808594 52.390625 58.699219 52.328125 58.597656 52.261719 C 58.578125 52.25 58.558594 52.238281 58.539062 52.222656 C 58.507812 52.199219 58.472656 52.175781 58.445312 52.152344 L 58.445312 52.148438 C 58.4375 52.148438 58.429688 52.140625 58.425781 52.136719 C 58.222656 51.980469 58.09375 51.835938 57.957031 51.683594 C 57.757812 51.457031 57.605469 51.246094 57.546875 51.164062 C 57.449219 51.027344 57.4375 51 57.34375 50.875 C 57.214844 50.703125 57.160156 50.664062 57.078125 50.53125 C 57 50.410156 56.949219 50.308594 56.910156 50.226562 C 56.824219 50.050781 56.703125 49.792969 56.558594 49.453125 C 56.519531 49.453125 56.472656 49.464844 56.425781 49.496094 C 56.371094 49.523438 56.320312 49.554688 56.261719 49.585938 C 56.199219 49.621094 56.144531 49.65625 56.085938 49.691406 C 56.027344 49.722656 55.976562 49.746094 55.9375 49.753906 C 55.902344 49.917969 55.882812 50.042969 55.871094 50.132812 C 55.859375 50.21875 55.894531 50.335938 55.96875 50.46875 C 56.054688 50.695312 56.082031 50.882812 56.046875 51.03125 C 56.015625 51.175781 55.941406 51.292969 55.824219 51.378906 C 55.707031 51.464844 55.5625 51.527344 55.390625 51.566406 C 55.214844 51.609375 55.035156 51.632812 54.847656 51.636719 C 54.660156 51.640625 54.476562 51.628906 54.300781 51.605469 C 54.125 51.582031 53.972656 51.558594 53.851562 51.527344 C 53.71875 51.472656 53.636719 51.402344 53.589844 51.324219 C 53.546875 51.25 53.527344 51.164062 53.539062 51.074219 C 53.550781 50.980469 53.578125 50.882812 53.628906 50.78125 C 53.683594 50.679688 53.746094 50.574219 53.820312 50.472656 C 53.90625 50.355469 53.980469 50.234375 54.039062 50.109375 C 54.097656 49.984375 54.140625 49.847656 54.167969 49.703125 C 54.238281 49.328125 54.292969 48.980469 54.347656 48.675781 C 54.394531 48.363281 54.445312 48.074219 54.492188 47.800781 C 54.539062 47.53125 54.585938 47.277344 54.625 47.035156 C 54.667969 46.796875 54.710938 46.5625 54.753906 46.332031 C 54.777344 46.214844 54.777344 46.109375 54.753906 46.011719 C 54.738281 45.914062 54.714844 45.816406 54.695312 45.714844 C 54.667969 45.65625 54.644531 45.601562 54.625 45.546875 C 54.605469 45.492188 54.585938 45.433594 54.574219 45.367188 C 54.539062 45.144531 54.585938 44.949219 54.707031 44.765625 C 54.828125 44.585938 55.003906 44.480469 55.226562 44.445312 C 55.441406 44.402344 55.632812 44.375 55.804688 44.367188 C 55.980469 44.355469 56.167969 44.351562 56.375 44.351562 C 56.449219 44.351562 56.527344 44.359375 56.609375 44.375 C 56.691406 44.390625 56.765625 44.421875 56.839844 44.457031 C 56.910156 44.496094 56.96875 44.539062 57.015625 44.59375 C 57.0625 44.648438 57.085938 44.714844 57.085938 44.800781 C 57.085938 44.910156 57.0625 45.035156 57.011719 45.179688 C 56.957031 45.320312 56.902344 45.464844 56.847656 45.601562 C 56.789062 45.738281 56.730469 45.863281 56.679688 45.972656 C 56.625 46.085938 56.59375 46.167969 56.585938 46.21875 C 56.542969 46.433594 56.511719 46.617188 56.488281 46.765625 C 56.464844 46.914062 56.445312 47.046875 56.425781 47.164062 C 56.40625 47.285156 56.394531 47.402344 56.382812 47.511719 C 56.367188 47.617188 56.347656 47.742188 56.320312 47.878906 C 56.332031 47.890625 56.378906 47.875 56.457031 47.820312 C 56.535156 47.769531 56.621094 47.707031 56.710938 47.640625 C 56.804688 47.574219 56.890625 47.507812 56.976562 47.441406 C 57.0625 47.375 57.113281 47.332031 57.132812 47.316406 C 57.222656 47.238281 57.277344 47.152344 57.308594 47.058594 C 57.335938 46.960938 57.359375 46.863281 57.378906 46.769531 C 57.398438 46.671875 57.429688 46.585938 57.476562 46.503906 C 57.519531 46.421875 57.601562 46.359375 57.726562 46.308594 C 58.027344 46.214844 58.347656 46.15625 58.679688 46.136719 C 59.011719 46.117188 59.292969 46.160156 59.53125 46.269531 C 59.660156 46.359375 59.738281 46.464844 59.761719 46.585938 C 59.785156 46.707031 59.773438 46.832031 59.722656 46.960938 C 59.671875 47.085938 59.59375 47.207031 59.496094 47.324219 C 59.402344 47.441406 59.289062 47.535156 59.179688 47.609375 C 58.96875 47.730469 58.765625 47.867188 58.574219 48.007812 C 58.382812 48.144531 58.191406 48.296875 58.003906 48.464844 C 58.15625 48.625 58.277344 48.8125 58.355469 49.023438 C 58.433594 49.230469 58.492188 49.449219 58.523438 49.675781 C 58.554688 49.90625 58.621094 50.105469 58.691406 50.34375 C 58.769531 50.613281 58.898438 50.800781 58.953125 50.898438 C 59.023438 51.011719 59.089844 51.109375 59.164062 51.203125 C 59.347656 51.378906 59.632812 51.617188 60.03125 51.820312 C 61.042969 52.324219 61.988281 52.195312 62.234375 52.152344 C 63.234375 51.988281 63.871094 51.445312 64.109375 51.222656 C 64.324219 51.480469 64.878906 52.078125 65.8125 52.363281 C 66.953125 52.714844 67.90625 52.367188 68.257812 52.230469 C 69.199219 51.875 69.765625 51.265625 70.015625 50.949219 Z M 70.015625 50.949219 " fill-opacity="1" fill-rule="nonzero"/><path fill="#009fe3" d="M 59.558594 52.742188 C 59.527344 52.734375 59.496094 52.722656 59.464844 52.714844 C 59.378906 52.6875 59.304688 52.65625 59.238281 52.621094 C 59.339844 52.667969 59.445312 52.707031 59.558594 52.742188 Z M 59.558594 52.742188 " fill-opacity="1" fill-rule="nonzero"/><path fill="#009fe3" d="M 70.292969 48.714844 C 70.53125 48.378906 70.992188 48.296875 71.324219 48.535156 C 71.65625 48.769531 71.738281 49.234375 71.503906 49.570312 C 71.265625 49.902344 70.675781 49.871094 70.105469 50.265625 C 70.261719 49.554688 70.058594 49.046875 70.292969 48.714844 Z M 70.292969 48.714844 " fill-opacity="1" fill-rule="nonzero"/><path fill="#009fe3" d="M 71.367188 50.265625 C 71.617188 50.28125 71.8125 50.496094 71.800781 50.746094 C 71.785156 51 71.570312 51.195312 71.320312 51.179688 C 71.070312 51.167969 70.890625 50.847656 70.5 50.679688 C 70.917969 50.527344 71.113281 50.253906 71.367188 50.265625 Z M 71.367188 50.265625 " fill-opacity="1" fill-rule="nonzero"/><path fill="#43c1f0" d="M 72.410156 49.242188 C 72.691406 49.167969 72.972656 49.339844 73.042969 49.621094 C 73.113281 49.902344 72.941406 50.1875 72.660156 50.257812 C 72.382812 50.328125 72.078125 50.03125 71.597656 49.984375 C 72.007812 49.675781 72.128906 49.308594 72.410156 49.242188 Z M 72.410156 49.242188 " fill-opacity="1" fill-rule="nonzero"/><path fill="#009fe3" d="M 59.21875 52.613281 C 58.980469 52.507812 58.773438 52.386719 58.597656 52.269531 C 58.699219 52.332031 58.808594 52.394531 58.957031 52.476562 C 59.007812 52.503906 59.078125 52.542969 59.167969 52.589844 C 59.1875 52.597656 59.203125 52.605469 59.21875 52.613281 Z M 59.21875 52.613281 " fill-opacity="1" fill-rule="nonzero"/><g clip-path="url(#9d1edaf929)"><g clip-path="url(#bff7534724)"><path fill="url(#bf9521326e)" d="M 2.148438 52.054688 L 2.148438 21.507812 L 41.226562 21.507812 L 41.226562 52.054688 Z M 2.148438 52.054688 " fill-rule="nonzero"/></g></g><path fill="#26559a" d="M 46.476562 38.988281 C 46.292969 39.316406 46.125 39.605469 45.96875 39.855469 C 45.8125 40.101562 45.65625 40.347656 45.492188 40.582031 C 45.332031 40.824219 45.167969 41.066406 45 41.324219 C 44.832031 41.578125 44.648438 41.875 44.449219 42.21875 C 44.335938 42.378906 44.21875 42.460938 44.09375 42.460938 C 43.96875 42.460938 43.875 42.378906 43.808594 42.207031 C 43.753906 41.933594 43.691406 41.671875 43.609375 41.421875 C 43.535156 41.175781 43.453125 40.925781 43.359375 40.679688 C 43.269531 40.429688 43.179688 40.171875 43.085938 39.90625 C 42.988281 39.640625 42.902344 39.359375 42.8125 39.054688 C 42.761719 39.265625 42.710938 39.492188 42.664062 39.742188 C 42.617188 39.988281 42.570312 40.234375 42.523438 40.476562 C 42.476562 40.71875 42.433594 40.945312 42.390625 41.164062 C 42.351562 41.382812 42.316406 41.5625 42.28125 41.707031 C 42.429688 41.789062 42.542969 41.890625 42.617188 42.027344 C 42.691406 42.160156 42.726562 42.300781 42.710938 42.445312 C 42.699219 42.589844 42.640625 42.730469 42.535156 42.863281 C 42.429688 43 42.277344 43.105469 42.078125 43.175781 C 41.847656 43.265625 41.613281 43.304688 41.382812 43.300781 C 41.152344 43.289062 40.921875 43.265625 40.695312 43.226562 C 40.480469 43.226562 40.320312 43.175781 40.210938 43.082031 C 40.105469 42.984375 40.042969 42.867188 40.03125 42.726562 C 40.019531 42.582031 40.050781 42.4375 40.128906 42.289062 C 40.210938 42.136719 40.328125 42.007812 40.492188 41.902344 C 40.632812 41.804688 40.714844 41.679688 40.734375 41.519531 C 40.78125 41.214844 40.832031 40.898438 40.890625 40.5625 C 40.945312 40.226562 41.007812 39.886719 41.070312 39.535156 C 41.132812 39.183594 41.191406 38.84375 41.25 38.507812 C 41.308594 38.175781 41.359375 37.851562 41.40625 37.550781 C 41.417969 37.480469 41.410156 37.414062 41.378906 37.367188 C 41.351562 37.316406 41.3125 37.265625 41.273438 37.21875 C 41.199219 37.132812 41.136719 37.042969 41.078125 36.945312 C 41.019531 36.847656 40.988281 36.734375 40.984375 36.605469 C 40.949219 36.390625 41.003906 36.207031 41.148438 36.046875 C 41.292969 35.890625 41.507812 35.796875 41.796875 35.761719 C 42.144531 35.722656 42.457031 35.714844 42.738281 35.742188 C 43.019531 35.765625 43.320312 35.789062 43.640625 35.8125 C 43.945312 35.824219 44.136719 35.976562 44.210938 36.265625 C 44.265625 36.472656 44.316406 36.691406 44.367188 36.921875 C 44.417969 37.15625 44.464844 37.390625 44.511719 37.632812 C 44.558594 37.875 44.601562 38.117188 44.648438 38.351562 C 44.691406 38.59375 44.730469 38.820312 44.761719 39.042969 C 44.835938 38.859375 44.929688 38.65625 45.046875 38.425781 C 45.167969 38.191406 45.285156 37.957031 45.410156 37.71875 C 45.535156 37.480469 45.652344 37.253906 45.761719 37.042969 C 45.871094 36.832031 45.964844 36.660156 46.039062 36.523438 C 46.253906 36.097656 46.597656 35.851562 47.070312 35.789062 C 47.226562 35.769531 47.371094 35.757812 47.507812 35.75 C 47.640625 35.742188 47.777344 35.742188 47.90625 35.746094 C 48.039062 35.75 48.167969 35.757812 48.296875 35.773438 C 48.429688 35.789062 48.570312 35.796875 48.722656 35.8125 C 48.855469 35.832031 48.976562 35.867188 49.078125 35.917969 C 49.183594 35.96875 49.261719 36.03125 49.320312 36.113281 C 49.378906 36.195312 49.40625 36.289062 49.402344 36.390625 C 49.398438 36.496094 49.359375 36.609375 49.277344 36.738281 C 49.175781 36.894531 49.058594 37.027344 48.925781 37.140625 C 48.851562 37.195312 48.800781 37.253906 48.777344 37.308594 C 48.75 37.367188 48.726562 37.429688 48.714844 37.503906 C 48.640625 38.003906 48.5625 38.535156 48.46875 39.105469 C 48.378906 39.675781 48.296875 40.210938 48.222656 40.707031 C 48.160156 40.921875 48.144531 41.117188 48.171875 41.292969 C 48.199219 41.464844 48.257812 41.632812 48.351562 41.785156 C 48.511719 42.03125 48.542969 42.28125 48.441406 42.523438 C 48.339844 42.769531 48.128906 42.953125 47.808594 43.074219 C 47.46875 43.199219 47.128906 43.269531 46.789062 43.277344 C 46.445312 43.285156 46.121094 43.257812 45.8125 43.183594 C 45.59375 43.128906 45.4375 43.03125 45.347656 42.886719 C 45.257812 42.742188 45.265625 42.550781 45.375 42.316406 C 45.398438 42.257812 45.4375 42.195312 45.496094 42.128906 C 45.546875 42.066406 45.605469 42 45.675781 41.933594 C 45.742188 41.867188 45.808594 41.804688 45.878906 41.75 C 45.941406 41.699219 46.003906 41.648438 46.058594 41.609375 C 46.105469 41.425781 46.140625 41.265625 46.167969 41.125 C 46.195312 40.988281 46.222656 40.824219 46.246094 40.640625 C 46.269531 40.460938 46.292969 40.242188 46.324219 39.984375 C 46.359375 39.71875 46.40625 39.390625 46.476562 38.988281 Z M 46.476562 38.988281 " fill-opacity="1" fill-rule="nonzero"/><path fill="#26559a" d="M 53.84375 41.523438 C 53.773438 41.753906 53.683594 41.972656 53.582031 42.179688 C 53.476562 42.386719 53.347656 42.570312 53.195312 42.734375 C 53.039062 42.894531 52.855469 43.03125 52.644531 43.140625 C 52.429688 43.25 52.171875 43.324219 51.875 43.355469 C 51.539062 43.394531 51.21875 43.410156 50.921875 43.402344 C 50.621094 43.390625 50.292969 43.339844 49.9375 43.246094 C 49.722656 43.179688 49.550781 43.082031 49.414062 42.953125 C 49.28125 42.828125 49.175781 42.679688 49.101562 42.511719 C 49.03125 42.34375 48.984375 42.160156 48.960938 41.957031 C 48.941406 41.757812 48.941406 41.554688 48.960938 41.34375 C 49 41.042969 49.054688 40.742188 49.117188 40.4375 C 49.179688 40.136719 49.253906 39.835938 49.332031 39.53125 C 49.453125 39.128906 49.671875 38.785156 49.984375 38.496094 C 50.300781 38.207031 50.664062 38.027344 51.078125 37.960938 C 51.445312 37.933594 51.761719 37.917969 52.03125 37.914062 C 52.296875 37.914062 52.570312 37.929688 52.855469 37.972656 C 53.054688 38.019531 53.238281 38.085938 53.40625 38.175781 C 53.574219 38.265625 53.71875 38.375 53.835938 38.496094 C 53.957031 38.617188 54.050781 38.75 54.117188 38.898438 C 54.179688 39.046875 54.21875 39.199219 54.226562 39.363281 C 54.238281 39.554688 54.238281 39.75 54.214844 39.945312 C 54.195312 40.140625 54.164062 40.332031 54.125 40.519531 C 54.085938 40.707031 54.039062 40.890625 53.988281 41.058594 C 53.941406 41.226562 53.894531 41.382812 53.84375 41.523438 Z M 52.371094 39.964844 C 52.390625 39.839844 52.40625 39.710938 52.410156 39.589844 C 52.417969 39.46875 52.40625 39.363281 52.375 39.273438 C 52.34375 39.183594 52.296875 39.113281 52.222656 39.0625 C 52.148438 39.011719 52.042969 38.984375 51.902344 38.984375 C 51.707031 39 51.5625 39.070312 51.460938 39.207031 C 51.363281 39.339844 51.277344 39.484375 51.210938 39.636719 C 51.101562 39.921875 51.023438 40.222656 50.96875 40.550781 C 50.914062 40.875 50.867188 41.179688 50.828125 41.472656 C 50.820312 41.679688 50.851562 41.851562 50.921875 41.988281 C 50.988281 42.125 51.125 42.195312 51.316406 42.195312 C 51.492188 42.183594 51.636719 42.109375 51.757812 41.972656 C 51.878906 41.839844 51.960938 41.695312 52.007812 41.542969 C 52.097656 41.269531 52.167969 41 52.226562 40.738281 C 52.28125 40.472656 52.332031 40.21875 52.371094 39.964844 Z M 52.371094 39.964844 " fill-opacity="1" fill-rule="nonzero"/><path fill="#26559a" d="M 54.460938 43.074219 C 54.332031 43.027344 54.25 42.964844 54.210938 42.882812 C 54.175781 42.800781 54.164062 42.710938 54.179688 42.613281 C 54.195312 42.511719 54.234375 42.40625 54.292969 42.296875 C 54.347656 42.183594 54.40625 42.082031 54.46875 41.988281 C 54.628906 41.769531 54.726562 41.542969 54.769531 41.292969 C 54.808594 41.085938 54.851562 40.875 54.898438 40.664062 C 54.945312 40.453125 54.988281 40.238281 55.03125 40.023438 C 55.039062 39.96875 55.042969 39.917969 55.046875 39.871094 C 55.050781 39.824219 55.054688 39.777344 55.0625 39.730469 C 55.054688 39.628906 55.035156 39.554688 54.992188 39.503906 C 54.953125 39.453125 54.914062 39.390625 54.882812 39.316406 C 54.769531 39.148438 54.738281 38.980469 54.789062 38.8125 C 54.835938 38.644531 54.964844 38.503906 55.164062 38.390625 C 55.304688 38.324219 55.472656 38.269531 55.667969 38.222656 C 55.863281 38.179688 56.058594 38.164062 56.242188 38.175781 C 56.425781 38.183594 56.578125 38.230469 56.703125 38.3125 C 56.824219 38.390625 56.882812 38.523438 56.878906 38.703125 C 56.886719 38.777344 56.871094 38.917969 56.832031 39.128906 C 56.796875 39.335938 56.75 39.574219 56.695312 39.839844 C 56.644531 40.105469 56.585938 40.378906 56.527344 40.660156 C 56.464844 40.941406 56.417969 41.195312 56.382812 41.414062 C 56.34375 41.644531 56.375 41.851562 56.484375 42.039062 C 56.550781 42.152344 56.582031 42.273438 56.578125 42.398438 C 56.574219 42.523438 56.542969 42.636719 56.484375 42.746094 C 56.425781 42.855469 56.339844 42.941406 56.226562 43.015625 C 56.117188 43.089844 55.988281 43.136719 55.839844 43.148438 C 55.566406 43.160156 55.324219 43.171875 55.113281 43.179688 C 54.90625 43.1875 54.683594 43.148438 54.460938 43.074219 Z M 57.09375 36.640625 C 57.132812 36.753906 57.144531 36.871094 57.125 36.984375 C 57.109375 37.097656 57.0625 37.203125 57 37.300781 C 56.9375 37.398438 56.851562 37.480469 56.746094 37.546875 C 56.640625 37.613281 56.523438 37.65625 56.394531 37.679688 C 56.140625 37.699219 55.910156 37.65625 55.699219 37.546875 C 55.484375 37.4375 55.359375 37.269531 55.3125 37.035156 C 55.289062 36.925781 55.296875 36.820312 55.324219 36.714844 C 55.347656 36.613281 55.398438 36.515625 55.464844 36.4375 C 55.539062 36.355469 55.621094 36.289062 55.71875 36.238281 C 55.816406 36.183594 55.921875 36.152344 56.042969 36.136719 C 56.273438 36.117188 56.480469 36.148438 56.675781 36.226562 C 56.871094 36.308594 57.007812 36.445312 57.09375 36.640625 Z M 57.09375 36.640625 " fill-opacity="1" fill-rule="nonzero"/><path fill="#26559a" d="M 59.773438 38.511719 C 59.820312 38.488281 59.859375 38.464844 59.894531 38.441406 C 59.929688 38.421875 59.957031 38.402344 59.984375 38.382812 C 60.136719 38.28125 60.289062 38.195312 60.445312 38.125 C 60.597656 38.054688 60.761719 37.996094 60.933594 37.949219 C 61.214844 37.894531 61.425781 37.929688 61.5625 38.0625 C 61.699219 38.195312 61.742188 38.398438 61.6875 38.671875 C 61.675781 38.804688 61.644531 38.949219 61.59375 39.09375 C 61.542969 39.242188 61.480469 39.386719 61.40625 39.527344 C 61.332031 39.667969 61.253906 39.796875 61.164062 39.914062 C 61.078125 40.035156 60.996094 40.125 60.914062 40.191406 C 60.832031 40.242188 60.777344 40.25 60.742188 40.203125 C 60.710938 40.15625 60.679688 40.09375 60.65625 40.019531 C 60.632812 39.945312 60.605469 39.871094 60.574219 39.792969 C 60.546875 39.71875 60.496094 39.667969 60.425781 39.652344 C 60.355469 39.636719 60.257812 39.664062 60.128906 39.742188 C 60 39.816406 59.828125 39.96875 59.609375 40.199219 C 59.585938 40.21875 59.574219 40.242188 59.5625 40.269531 C 59.554688 40.296875 59.546875 40.320312 59.539062 40.339844 C 59.503906 40.542969 59.46875 40.746094 59.433594 40.945312 C 59.394531 41.144531 59.363281 41.351562 59.328125 41.558594 C 59.289062 41.679688 59.324219 41.773438 59.4375 41.839844 C 59.585938 41.914062 59.679688 42.023438 59.71875 42.167969 C 59.757812 42.308594 59.753906 42.464844 59.695312 42.636719 C 59.636719 42.835938 59.515625 42.980469 59.335938 43.066406 C 59.152344 43.152344 58.949219 43.210938 58.71875 43.226562 C 58.488281 43.246094 58.253906 43.246094 58.015625 43.222656 C 57.777344 43.199219 57.582031 43.175781 57.417969 43.15625 C 57.277344 43.128906 57.171875 43.074219 57.101562 42.996094 C 57.03125 42.914062 56.992188 42.824219 56.980469 42.726562 C 56.96875 42.625 56.992188 42.519531 57.046875 42.410156 C 57.097656 42.296875 57.175781 42.195312 57.277344 42.101562 C 57.375 42.011719 57.445312 41.925781 57.484375 41.84375 C 57.527344 41.761719 57.550781 41.667969 57.558594 41.570312 C 57.582031 41.382812 57.625 41.179688 57.683594 40.96875 C 57.742188 40.757812 57.785156 40.542969 57.824219 40.332031 C 57.859375 40.121094 57.878906 39.921875 57.878906 39.726562 C 57.878906 39.53125 57.839844 39.363281 57.757812 39.222656 C 57.613281 39.09375 57.535156 38.949219 57.523438 38.789062 C 57.511719 38.628906 57.554688 38.496094 57.648438 38.386719 C 57.734375 38.277344 57.828125 38.203125 57.929688 38.15625 C 58.183594 38.054688 58.429688 37.996094 58.667969 37.980469 C 58.902344 37.964844 59.136719 37.980469 59.375 38.035156 C 59.609375 38.078125 59.738281 38.238281 59.773438 38.511719 Z M 59.773438 38.511719 " fill-opacity="1" fill-rule="nonzero"/><path fill="#26559a" d="M 66.613281 41.886719 C 66.601562 42.101562 66.542969 42.296875 66.441406 42.472656 C 66.34375 42.644531 66.21875 42.792969 66.066406 42.914062 C 65.917969 43.035156 65.753906 43.128906 65.574219 43.191406 C 65.390625 43.253906 65.222656 43.28125 65.054688 43.265625 C 64.890625 43.253906 64.742188 43.199219 64.609375 43.101562 C 64.476562 43.003906 64.378906 42.859375 64.320312 42.664062 C 64 42.863281 63.667969 43.007812 63.328125 43.089844 C 62.992188 43.171875 62.679688 43.191406 62.390625 43.140625 C 62.101562 43.089844 61.859375 42.96875 61.660156 42.773438 C 61.460938 42.578125 61.339844 42.296875 61.296875 41.9375 C 61.261719 41.496094 61.304688 41.050781 61.421875 40.601562 C 61.542969 40.15625 61.726562 39.75 61.980469 39.386719 C 62.234375 39.023438 62.546875 38.722656 62.925781 38.476562 C 63.304688 38.230469 63.734375 38.089844 64.214844 38.050781 C 64.386719 38.058594 64.558594 38.105469 64.71875 38.195312 C 64.882812 38.285156 65.03125 38.359375 65.15625 38.410156 C 65.269531 38.277344 65.398438 38.1875 65.535156 38.140625 C 65.675781 38.09375 65.820312 38.0625 65.964844 38.050781 C 66.199219 38.035156 66.382812 38.09375 66.511719 38.226562 C 66.640625 38.359375 66.691406 38.535156 66.65625 38.757812 C 66.5625 39.28125 66.445312 39.800781 66.308594 40.316406 C 66.171875 40.832031 66.066406 41.328125 65.996094 41.796875 C 66.007812 41.84375 66.019531 41.890625 66.023438 41.941406 C 66.027344 41.992188 66.066406 42.023438 66.132812 42.03125 C 66.199219 42.03125 66.246094 42.003906 66.269531 41.957031 C 66.292969 41.910156 66.316406 41.863281 66.347656 41.816406 C 66.367188 41.707031 66.394531 41.636719 66.425781 41.605469 C 66.460938 41.570312 66.492188 41.5625 66.527344 41.578125 C 66.5625 41.59375 66.585938 41.632812 66.601562 41.691406 C 66.625 41.746094 66.625 41.8125 66.613281 41.886719 Z M 64.777344 39.621094 C 64.695312 39.585938 64.597656 39.5625 64.480469 39.546875 C 64.363281 39.535156 64.246094 39.535156 64.125 39.546875 C 64.003906 39.5625 63.890625 39.59375 63.789062 39.636719 C 63.6875 39.683594 63.601562 39.75 63.542969 39.832031 C 63.3125 40.066406 63.160156 40.3125 63.074219 40.574219 C 62.992188 40.839844 62.976562 41.066406 63.03125 41.261719 C 63.066406 41.414062 63.136719 41.511719 63.25 41.554688 C 63.363281 41.59375 63.492188 41.59375 63.632812 41.558594 C 63.773438 41.519531 63.914062 41.457031 64.054688 41.367188 C 64.195312 41.277344 64.304688 41.175781 64.382812 41.066406 C 64.445312 40.785156 64.511719 40.535156 64.589844 40.316406 C 64.664062 40.097656 64.734375 39.871094 64.777344 39.621094 Z M 64.777344 39.621094 " fill-opacity="1" fill-rule="nonzero"/></svg>