<svg xmlns="http://www.w3.org/2000/svg" xmlns:xlink="http://www.w3.org/1999/xlink" width="100" zoomAndPan="magnify" viewBox="0 0 75 74.999997" height="100" preserveAspectRatio="xMidYMid meet" version="1.0"><defs><clipPath id="50a25caec1"><path d="M 3 21.757812 L 41.367188 21.757812 L 41.367188 51.898438 L 3 51.898438 Z M 3 21.757812 " clip-rule="nonzero"/></clipPath><clipPath id="971694c4cb"><path d="M 32.171875 23.726562 C 30.457031 25.535156 29.347656 27.59375 28.269531 29.578125 C 27.796875 30.445312 27.3125 31.347656 26.785156 32.203125 C 25.640625 34.066406 23.386719 37.1875 21.152344 37.1875 C 20.6875 37.1875 20.25 37.050781 19.816406 36.773438 C 18.8125 36.121094 17.867188 34.863281 17.03125 33.753906 C 16.589844 33.160156 16.167969 32.597656 15.773438 32.179688 C 15.523438 31.914062 15.3125 31.671875 15.128906 31.453125 C 14.488281 30.710938 13.980469 30.121094 12.699219 29.664062 C 12.183594 29.480469 11.566406 29.378906 10.964844 29.378906 C 8.75 29.378906 6.929688 30.648438 5.976562 32.855469 C 4.417969 36.441406 3.078125 44.703125 3 47.484375 C 2.996094 48.191406 3.253906 48.824219 3.75 49.320312 C 4.335938 49.910156 5.183594 50.234375 6.132812 50.234375 C 6.335938 50.234375 6.546875 50.21875 6.757812 50.1875 C 8.757812 49.894531 10.386719 48.265625 10.394531 46.550781 C 10.367188 42.277344 8.625 40.175781 8.734375 37.597656 C 8.832031 35.195312 9.875 31.074219 12.328125 31.539062 C 14.597656 31.972656 15.753906 33.941406 17.460938 38.839844 C 17.609375 39.265625 17.714844 39.574219 17.785156 39.734375 L 17.816406 39.804688 C 18.519531 41.433594 19.707031 44.164062 22.335938 44.164062 C 22.558594 44.164062 22.789062 44.140625 23.023438 44.101562 C 25.78125 43.613281 26.496094 41.355469 27.179688 39.171875 C 27.285156 38.839844 27.390625 38.511719 27.5 38.183594 C 27.851562 37.152344 28.164062 35.945312 28.5 34.664062 C 28.953125 32.921875 29.421875 31.121094 30.003906 29.742188 C 31.007812 27.371094 31.46875 26.34375 32.824219 24.742188 C 33.671875 23.738281 34.859375 23.160156 36.082031 23.160156 C 37.535156 23.160156 38.683594 23.941406 39.003906 25.148438 C 39.207031 25.90625 39.246094 26.796875 39.105469 27.480469 C 38.546875 30.269531 36.492188 34.105469 34.351562 37.832031 C 33.894531 38.628906 33.46875 39.34375 33.089844 39.972656 C 31.375 42.832031 29.015625 46.550781 29.421875 49.082031 C 29.71875 50.949219 36.515625 51.769531 38.441406 51.769531 C 38.6875 51.769531 38.894531 51.730469 39.066406 51.648438 C 40.457031 50.980469 39.753906 48.460938 39.289062 46.792969 C 39.203125 46.496094 39.132812 46.238281 39.101562 46.078125 C 38.691406 44.046875 38.851562 41.710938 39.605469 38.722656 L 39.628906 38.632812 C 40.4375 35.433594 41.273438 32.132812 41.285156 28.910156 C 41.296875 25.902344 40.488281 23.777344 38.882812 22.589844 C 38.261719 22.132812 37.449219 21.890625 36.527344 21.890625 C 34.9375 21.886719 33.226562 22.609375 32.171875 23.726562 " clip-rule="nonzero"/></clipPath></defs><path fill="#ffffff" d="M 45.453125 49.183594 C 45.296875 49.058594 45.230469 48.910156 45.25 48.742188 C 45.273438 48.578125 45.339844 48.421875 45.457031 48.277344 C 45.574219 48.132812 45.71875 48.019531 45.890625 47.9375 C 46.0625 47.855469 46.230469 47.828125 46.382812 47.863281 C 46.738281 47.863281 47.019531 47.980469 47.222656 48.21875 C 47.429688 48.457031 47.523438 48.761719 47.503906 49.136719 C 47.496094 49.3125 47.476562 49.511719 47.4375 49.742188 C 47.402344 49.976562 47.339844 50.195312 47.257812 50.410156 C 47.175781 50.625 47.0625 50.816406 46.921875 50.992188 C 46.777344 51.167969 46.59375 51.285156 46.375 51.34375 C 46.082031 51.421875 45.753906 51.476562 45.398438 51.503906 C 45.042969 51.527344 44.6875 51.542969 44.335938 51.542969 C 43.984375 51.542969 43.652344 51.535156 43.335938 51.523438 C 43.019531 51.511719 42.757812 51.496094 42.550781 51.484375 C 42.3125 51.496094 42.09375 51.480469 41.898438 51.433594 C 41.707031 51.386719 41.554688 51.3125 41.449219 51.210938 C 41.34375 51.113281 41.289062 50.992188 41.285156 50.851562 C 41.28125 50.710938 41.355469 50.558594 41.5 50.390625 C 41.59375 50.28125 41.699219 50.1875 41.816406 50.105469 C 41.933594 50.023438 42.003906 49.917969 42.023438 49.796875 C 42.097656 49.449219 42.175781 49.089844 42.257812 48.722656 C 42.339844 48.355469 42.421875 47.992188 42.5 47.632812 C 42.582031 47.269531 42.652344 46.914062 42.710938 46.566406 C 42.769531 46.21875 42.816406 45.890625 42.84375 45.582031 C 42.832031 45.449219 42.785156 45.339844 42.703125 45.253906 C 42.621094 45.164062 42.554688 45.074219 42.5 44.984375 C 42.386719 44.746094 42.386719 44.535156 42.5 44.351562 C 42.613281 44.164062 42.816406 44.027344 43.101562 43.949219 C 43.476562 43.847656 43.839844 43.796875 44.199219 43.792969 C 44.554688 43.792969 44.902344 43.832031 45.242188 43.910156 C 45.578125 43.984375 45.769531 44.136719 45.824219 44.363281 C 45.878906 44.589844 45.765625 44.835938 45.484375 45.105469 C 45.34375 45.226562 45.230469 45.339844 45.136719 45.445312 C 45.042969 45.550781 44.980469 45.695312 44.945312 45.875 C 44.851562 46.347656 44.753906 46.851562 44.65625 47.390625 C 44.554688 47.925781 44.464844 48.429688 44.386719 48.902344 C 44.363281 49.058594 44.355469 49.210938 44.359375 49.359375 C 44.363281 49.507812 44.386719 49.644531 44.433594 49.765625 C 44.480469 49.886719 44.554688 49.980469 44.65625 50.046875 C 44.753906 50.113281 44.886719 50.140625 45.046875 50.128906 C 45.234375 50.140625 45.410156 50.082031 45.582031 49.957031 C 45.75 49.832031 45.882812 49.683594 45.976562 49.511719 C 46.070312 49.339844 46.113281 49.175781 46.101562 49.019531 C 46.09375 48.863281 46.003906 48.757812 45.839844 48.714844 C 45.710938 48.726562 45.625 48.789062 45.578125 48.894531 C 45.523438 49 45.484375 49.097656 45.453125 49.183594 Z M 45.453125 49.183594 " fill-opacity="1" fill-rule="nonzero"/><path fill="#ffffff" d="M 53.296875 49.957031 C 53.285156 50.171875 53.226562 50.363281 53.128906 50.539062 C 53.027344 50.714844 52.902344 50.863281 52.753906 50.980469 C 52.601562 51.101562 52.4375 51.191406 52.257812 51.253906 C 52.078125 51.320312 51.902344 51.34375 51.738281 51.332031 C 51.574219 51.316406 51.429688 51.261719 51.296875 51.164062 C 51.160156 51.066406 51.0625 50.921875 51.003906 50.730469 C 50.683594 50.929688 50.355469 51.074219 50.019531 51.15625 C 49.683594 51.238281 49.371094 51.253906 49.085938 51.203125 C 48.796875 51.15625 48.554688 51.03125 48.355469 50.839844 C 48.152344 50.644531 48.03125 50.367188 47.996094 50.007812 C 47.960938 49.566406 48.003906 49.121094 48.121094 48.675781 C 48.234375 48.230469 48.421875 47.828125 48.675781 47.46875 C 48.929688 47.109375 49.242188 46.804688 49.621094 46.5625 C 50 46.316406 50.425781 46.175781 50.90625 46.136719 C 51.078125 46.144531 51.25 46.191406 51.414062 46.28125 C 51.578125 46.371094 51.722656 46.441406 51.847656 46.496094 C 51.960938 46.363281 52.085938 46.273438 52.226562 46.226562 C 52.371094 46.179688 52.511719 46.148438 52.65625 46.136719 C 52.890625 46.125 53.074219 46.183594 53.203125 46.3125 C 53.332031 46.441406 53.378906 46.617188 53.347656 46.835938 C 53.253906 47.359375 53.136719 47.878906 53 48.394531 C 52.867188 48.910156 52.761719 49.402344 52.6875 49.867188 C 52.699219 49.914062 52.707031 49.960938 52.714844 50.011719 C 52.722656 50.058594 52.761719 50.089844 52.828125 50.097656 C 52.894531 50.097656 52.9375 50.074219 52.964844 50.027344 C 52.988281 49.980469 53.011719 49.933594 53.039062 49.886719 C 53.058594 49.777344 53.085938 49.707031 53.117188 49.675781 C 53.152344 49.640625 53.183594 49.632812 53.21875 49.648438 C 53.25 49.664062 53.277344 49.703125 53.292969 49.757812 C 53.308594 49.816406 53.3125 49.882812 53.296875 49.957031 Z M 51.46875 47.699219 C 51.386719 47.667969 51.289062 47.644531 51.171875 47.632812 C 51.054688 47.617188 50.9375 47.617188 50.816406 47.632812 C 50.695312 47.644531 50.585938 47.675781 50.484375 47.722656 C 50.378906 47.765625 50.296875 47.832031 50.238281 47.910156 C 50.011719 48.144531 49.855469 48.394531 49.773438 48.652344 C 49.691406 48.914062 49.675781 49.144531 49.726562 49.335938 C 49.761719 49.492188 49.832031 49.585938 49.949219 49.628906 C 50.0625 49.667969 50.1875 49.667969 50.328125 49.632812 C 50.46875 49.597656 50.609375 49.53125 50.75 49.441406 C 50.890625 49.351562 51 49.253906 51.078125 49.144531 C 51.136719 48.863281 51.207031 48.613281 51.285156 48.398438 C 51.359375 48.179688 51.421875 47.949219 51.46875 47.699219 Z M 51.46875 47.699219 " fill-opacity="1" fill-rule="nonzero"/><path fill="#ffffff" d="M 60.953125 48.992188 C 60.855469 49.253906 60.835938 49.476562 60.902344 49.65625 C 60.964844 49.835938 61.070312 49.960938 61.21875 50.03125 C 61.363281 50.101562 61.527344 50.113281 61.707031 50.0625 C 61.886719 50.015625 62.042969 49.890625 62.167969 49.695312 C 62.160156 49.675781 62.140625 49.660156 62.109375 49.644531 C 62.074219 49.628906 62.050781 49.601562 62.03125 49.566406 C 61.976562 49.546875 61.953125 49.523438 61.964844 49.488281 C 61.976562 49.453125 62 49.425781 62.035156 49.394531 C 62.070312 49.363281 62.113281 49.335938 62.160156 49.3125 C 62.207031 49.289062 62.246094 49.277344 62.28125 49.277344 C 62.449219 49.234375 62.628906 49.210938 62.820312 49.203125 C 63.015625 49.191406 63.191406 49.203125 63.351562 49.242188 C 63.511719 49.28125 63.640625 49.347656 63.742188 49.441406 C 63.839844 49.53125 63.882812 49.667969 63.863281 49.839844 C 63.742188 50.195312 63.539062 50.492188 63.253906 50.726562 C 62.972656 50.960938 62.652344 51.128906 62.304688 51.238281 C 61.953125 51.34375 61.59375 51.390625 61.226562 51.375 C 60.859375 51.355469 60.535156 51.277344 60.246094 51.136719 C 59.886719 50.984375 59.617188 50.765625 59.441406 50.476562 C 59.261719 50.1875 59.164062 49.855469 59.144531 49.472656 C 59.132812 49.125 59.164062 48.773438 59.246094 48.425781 C 59.324219 48.074219 59.449219 47.746094 59.625 47.441406 C 59.796875 47.136719 60.023438 46.867188 60.296875 46.640625 C 60.570312 46.40625 60.894531 46.242188 61.269531 46.140625 C 61.574219 46.074219 61.878906 46.042969 62.171875 46.042969 C 62.46875 46.042969 62.746094 46.082031 63 46.164062 C 63.253906 46.242188 63.476562 46.363281 63.667969 46.523438 C 63.863281 46.683594 64.007812 46.886719 64.097656 47.132812 C 64.15625 47.289062 64.195312 47.449219 64.203125 47.625 C 64.214844 47.800781 64.191406 47.972656 64.140625 48.144531 C 64.058594 48.367188 63.953125 48.535156 63.8125 48.652344 C 63.675781 48.769531 63.492188 48.847656 63.257812 48.878906 C 62.886719 48.949219 62.496094 48.980469 62.089844 48.980469 C 61.6875 48.980469 61.308594 48.980469 60.953125 48.992188 Z M 62.65625 48.007812 C 62.714844 47.828125 62.726562 47.675781 62.6875 47.546875 C 62.644531 47.421875 62.578125 47.324219 62.480469 47.257812 C 62.382812 47.191406 62.269531 47.15625 62.132812 47.152344 C 61.996094 47.148438 61.863281 47.175781 61.734375 47.242188 C 61.609375 47.304688 61.496094 47.402344 61.402344 47.53125 C 61.304688 47.664062 61.242188 47.828125 61.21875 48.03125 C 61.316406 48.03125 61.429688 48.027344 61.554688 48.023438 C 61.683594 48.023438 61.8125 48.019531 61.941406 48.019531 C 62.074219 48.019531 62.203125 48.015625 62.328125 48.015625 C 62.453125 48.011719 62.5625 48.007812 62.65625 48.007812 Z M 62.65625 48.007812 " fill-opacity="1" fill-rule="nonzero"/><path fill="#ffffff" d="M 65.828125 49.332031 C 65.703125 49.515625 65.640625 49.664062 65.648438 49.785156 C 65.65625 49.90625 65.734375 50.011719 65.886719 50.105469 C 65.988281 50.167969 66.117188 50.214844 66.273438 50.25 C 66.429688 50.289062 66.585938 50.300781 66.738281 50.289062 C 66.894531 50.273438 67.03125 50.226562 67.160156 50.152344 C 67.285156 50.074219 67.371094 49.953125 67.410156 49.785156 C 67.449219 49.589844 67.398438 49.449219 67.25 49.363281 C 67.035156 49.28125 66.832031 49.210938 66.636719 49.144531 C 66.4375 49.082031 66.253906 49.019531 66.082031 48.957031 C 65.90625 48.890625 65.742188 48.824219 65.578125 48.753906 C 65.417969 48.683594 65.269531 48.601562 65.128906 48.507812 C 64.9375 48.34375 64.816406 48.144531 64.78125 47.921875 C 64.738281 47.699219 64.757812 47.472656 64.828125 47.246094 C 64.902344 47.019531 65.027344 46.804688 65.203125 46.601562 C 65.382812 46.402344 65.589844 46.246094 65.828125 46.132812 C 66.019531 46.027344 66.28125 45.941406 66.605469 45.882812 C 66.929688 45.824219 67.269531 45.800781 67.621094 45.824219 C 67.976562 45.84375 68.3125 45.910156 68.636719 46.027344 C 68.960938 46.144531 69.214844 46.328125 69.410156 46.574219 C 69.523438 46.734375 69.5625 46.917969 69.523438 47.121094 C 69.480469 47.324219 69.375 47.507812 69.191406 47.667969 C 69.09375 47.746094 68.984375 47.8125 68.859375 47.859375 C 68.734375 47.902344 68.613281 47.933594 68.488281 47.941406 C 68.367188 47.953125 68.246094 47.945312 68.128906 47.917969 C 68.011719 47.890625 67.914062 47.839844 67.832031 47.765625 C 67.707031 47.652344 67.652344 47.515625 67.675781 47.355469 C 67.6875 47.277344 67.6875 47.195312 67.667969 47.121094 C 67.652344 47.042969 67.605469 46.988281 67.53125 46.957031 C 67.410156 46.898438 67.285156 46.890625 67.152344 46.933594 C 67.019531 46.980469 66.90625 47.050781 66.824219 47.148438 C 66.734375 47.238281 66.6875 47.347656 66.675781 47.46875 C 66.660156 47.589844 66.714844 47.691406 66.832031 47.78125 C 66.933594 47.859375 67.042969 47.921875 67.160156 47.964844 C 67.277344 48.007812 67.394531 48.046875 67.515625 48.078125 C 67.636719 48.109375 67.753906 48.136719 67.875 48.167969 C 67.996094 48.199219 68.109375 48.230469 68.222656 48.273438 C 68.511719 48.363281 68.742188 48.511719 68.921875 48.707031 C 69.097656 48.90625 69.203125 49.164062 69.238281 49.484375 C 69.257812 49.640625 69.238281 49.804688 69.1875 49.972656 C 69.132812 50.144531 69.0625 50.308594 68.96875 50.46875 C 68.875 50.628906 68.761719 50.777344 68.632812 50.910156 C 68.5 51.042969 68.371094 51.148438 68.238281 51.222656 C 68.066406 51.335938 67.820312 51.425781 67.511719 51.492188 C 67.199219 51.558594 66.871094 51.597656 66.523438 51.605469 C 66.171875 51.613281 65.832031 51.585938 65.496094 51.527344 C 65.164062 51.472656 64.890625 51.375 64.675781 51.242188 C 64.523438 51.183594 64.40625 51.089844 64.316406 50.957031 C 64.230469 50.824219 64.175781 50.683594 64.152344 50.527344 C 64.128906 50.371094 64.140625 50.210938 64.195312 50.046875 C 64.242188 49.878906 64.332031 49.734375 64.457031 49.609375 C 64.546875 49.515625 64.648438 49.441406 64.769531 49.382812 C 64.890625 49.324219 65.015625 49.285156 65.144531 49.261719 C 65.277344 49.238281 65.398438 49.234375 65.519531 49.246094 C 65.628906 49.257812 65.734375 49.289062 65.828125 49.332031 Z M 65.828125 49.332031 " fill-opacity="1" fill-rule="nonzero"/><path fill="#ffffff" d="M 69.507812 50.691406 C 69.449219 50.992188 69.3125 51.472656 68.957031 51.9375 C 68.699219 52.273438 68.433594 52.464844 68.359375 52.511719 C 67.882812 52.835938 67.425781 52.910156 67.074219 52.964844 C 66.5 53.054688 66.050781 52.996094 65.75 52.957031 C 65.488281 52.921875 65.027344 52.851562 64.480469 52.601562 C 64.132812 52.441406 63.867188 52.261719 63.683594 52.117188 C 63.480469 52.253906 63.175781 52.425781 62.78125 52.554688 C 62.246094 52.726562 61.8125 52.730469 61.425781 52.738281 C 61.023438 52.746094 60.734375 52.707031 60.152344 52.632812 C 59.796875 52.585938 59.570312 52.542969 59.28125 52.453125 C 59.273438 52.449219 59.261719 52.445312 59.257812 52.445312 C 59.148438 52.40625 59.046875 52.367188 58.945312 52.324219 C 58.9375 52.324219 58.933594 52.316406 58.925781 52.316406 C 58.910156 52.308594 58.894531 52.300781 58.875 52.292969 C 58.789062 52.246094 58.714844 52.210938 58.667969 52.179688 C 58.523438 52.101562 58.414062 52.042969 58.316406 51.976562 C 58.300781 51.964844 58.277344 51.953125 58.261719 51.9375 C 58.226562 51.914062 58.195312 51.890625 58.164062 51.867188 C 58.160156 51.863281 58.152344 51.859375 58.148438 51.855469 C 57.949219 51.699219 57.824219 51.558594 57.691406 51.410156 C 57.492188 51.1875 57.347656 50.984375 57.285156 50.898438 C 57.191406 50.769531 57.179688 50.742188 57.085938 50.621094 C 56.960938 50.453125 56.90625 50.410156 56.828125 50.28125 C 56.75 50.164062 56.703125 50.066406 56.664062 49.984375 C 56.578125 49.8125 56.460938 49.5625 56.320312 49.226562 C 56.28125 49.226562 56.234375 49.242188 56.1875 49.269531 C 56.136719 49.296875 56.082031 49.324219 56.027344 49.359375 C 55.96875 49.394531 55.910156 49.425781 55.855469 49.460938 C 55.796875 49.492188 55.75 49.515625 55.707031 49.523438 C 55.675781 49.683594 55.65625 49.804688 55.644531 49.894531 C 55.632812 49.976562 55.667969 50.089844 55.738281 50.222656 C 55.824219 50.445312 55.851562 50.625 55.820312 50.769531 C 55.785156 50.914062 55.714844 51.027344 55.601562 51.113281 C 55.484375 51.195312 55.34375 51.253906 55.175781 51.296875 C 55 51.339844 54.828125 51.359375 54.640625 51.363281 C 54.460938 51.367188 54.28125 51.355469 54.105469 51.332031 C 53.933594 51.308594 53.785156 51.285156 53.664062 51.257812 C 53.535156 51.203125 53.453125 51.132812 53.410156 51.058594 C 53.367188 50.984375 53.347656 50.902344 53.359375 50.8125 C 53.371094 50.722656 53.398438 50.628906 53.449219 50.527344 C 53.5 50.425781 53.5625 50.324219 53.632812 50.226562 C 53.71875 50.113281 53.792969 49.992188 53.851562 49.871094 C 53.90625 49.746094 53.949219 49.613281 53.976562 49.472656 C 54.042969 49.105469 54.097656 48.765625 54.152344 48.464844 C 54.199219 48.160156 54.25 47.878906 54.292969 47.613281 C 54.339844 47.347656 54.382812 47.097656 54.421875 46.863281 C 54.464844 46.628906 54.507812 46.398438 54.550781 46.171875 C 54.574219 46.058594 54.574219 45.957031 54.550781 45.859375 C 54.535156 45.765625 54.511719 45.671875 54.492188 45.570312 C 54.46875 45.511719 54.445312 45.460938 54.421875 45.40625 C 54.402344 45.351562 54.386719 45.292969 54.375 45.230469 C 54.339844 45.011719 54.382812 44.820312 54.503906 44.640625 C 54.625 44.464844 54.796875 44.363281 55.015625 44.328125 C 55.222656 44.285156 55.410156 44.261719 55.578125 44.253906 C 55.753906 44.242188 55.9375 44.234375 56.136719 44.234375 C 56.210938 44.234375 56.285156 44.242188 56.367188 44.261719 C 56.449219 44.277344 56.523438 44.304688 56.59375 44.339844 C 56.664062 44.378906 56.722656 44.421875 56.765625 44.476562 C 56.8125 44.527344 56.835938 44.59375 56.835938 44.675781 C 56.835938 44.785156 56.8125 44.90625 56.761719 45.046875 C 56.710938 45.1875 56.65625 45.324219 56.601562 45.460938 C 56.542969 45.59375 56.488281 45.714844 56.4375 45.824219 C 56.382812 45.9375 56.355469 46.015625 56.347656 46.0625 C 56.304688 46.273438 56.273438 46.453125 56.25 46.601562 C 56.226562 46.746094 56.207031 46.875 56.1875 46.988281 C 56.171875 47.109375 56.160156 47.222656 56.144531 47.328125 C 56.128906 47.433594 56.113281 47.554688 56.082031 47.6875 C 56.097656 47.699219 56.144531 47.683594 56.21875 47.632812 C 56.292969 47.578125 56.378906 47.519531 56.46875 47.457031 C 56.558594 47.390625 56.644531 47.324219 56.726562 47.261719 C 56.8125 47.195312 56.863281 47.15625 56.882812 47.136719 C 56.96875 47.0625 57.023438 46.976562 57.054688 46.882812 C 57.078125 46.792969 57.101562 46.695312 57.121094 46.601562 C 57.144531 46.507812 57.171875 46.421875 57.21875 46.34375 C 57.257812 46.261719 57.339844 46.199219 57.460938 46.152344 C 57.761719 46.058594 58.074219 46.003906 58.398438 45.984375 C 58.722656 45.964844 59 46.007812 59.234375 46.113281 C 59.359375 46.199219 59.4375 46.304688 59.457031 46.421875 C 59.480469 46.542969 59.46875 46.664062 59.421875 46.789062 C 59.367188 46.914062 59.292969 47.03125 59.199219 47.144531 C 59.105469 47.261719 58.996094 47.351562 58.886719 47.425781 C 58.679688 47.542969 58.480469 47.675781 58.292969 47.8125 C 58.105469 47.949219 57.917969 48.097656 57.734375 48.257812 C 57.886719 48.417969 58.003906 48.601562 58.078125 48.804688 C 58.15625 49.007812 58.210938 49.222656 58.246094 49.445312 C 58.277344 49.671875 58.339844 49.863281 58.40625 50.097656 C 58.484375 50.363281 58.609375 50.542969 58.667969 50.644531 C 58.734375 50.75 58.800781 50.847656 58.871094 50.9375 C 59.050781 51.113281 59.332031 51.347656 59.722656 51.542969 C 60.714844 52.035156 61.640625 51.910156 61.878906 51.867188 C 62.859375 51.707031 63.488281 51.175781 63.71875 50.960938 C 63.929688 51.210938 64.472656 51.792969 65.386719 52.074219 C 66.503906 52.421875 67.441406 52.078125 67.785156 51.945312 C 68.707031 51.597656 69.261719 51 69.507812 50.691406 Z M 69.507812 50.691406 " fill-opacity="1" fill-rule="nonzero"/><path fill="#ffffff" d="M 59.257812 52.445312 C 59.226562 52.4375 59.195312 52.429688 59.164062 52.417969 C 59.082031 52.390625 59.007812 52.359375 58.945312 52.328125 C 59.046875 52.371094 59.148438 52.410156 59.257812 52.445312 Z M 59.257812 52.445312 " fill-opacity="1" fill-rule="nonzero"/><path fill="#ffffff" d="M 69.78125 48.503906 C 70.011719 48.175781 70.464844 48.097656 70.789062 48.328125 C 71.117188 48.5625 71.195312 49.015625 70.964844 49.339844 C 70.734375 49.667969 70.152344 49.636719 69.597656 50.023438 C 69.75 49.328125 69.546875 48.832031 69.78125 48.503906 Z M 69.78125 48.503906 " fill-opacity="1" fill-rule="nonzero"/><path fill="#ffffff" d="M 70.832031 50.023438 C 71.078125 50.039062 71.269531 50.25 71.253906 50.492188 C 71.242188 50.742188 71.03125 50.929688 70.785156 50.917969 C 70.539062 50.90625 70.367188 50.589844 69.980469 50.429688 C 70.390625 50.28125 70.582031 50.011719 70.832031 50.023438 Z M 70.832031 50.023438 " fill-opacity="1" fill-rule="nonzero"/><path fill="#ffffff" d="M 71.855469 49.019531 C 72.128906 48.949219 72.40625 49.117188 72.472656 49.394531 C 72.542969 49.667969 72.375 49.945312 72.101562 50.015625 C 71.824219 50.082031 71.53125 49.796875 71.058594 49.746094 C 71.457031 49.445312 71.578125 49.085938 71.855469 49.019531 Z M 71.855469 49.019531 " fill-opacity="1" fill-rule="nonzero"/><path fill="#ffffff" d="M 58.925781 52.320312 C 58.691406 52.21875 58.488281 52.097656 58.316406 51.980469 C 58.414062 52.042969 58.523438 52.101562 58.667969 52.1875 C 58.71875 52.210938 58.789062 52.25 58.875 52.296875 C 58.894531 52.304688 58.910156 52.3125 58.925781 52.320312 Z M 58.925781 52.320312 " fill-opacity="1" fill-rule="nonzero"/><path fill="#ffffff" d="M 32.171875 23.726562 C 30.457031 25.535156 29.347656 27.59375 28.269531 29.578125 C 27.796875 30.445312 27.3125 31.347656 26.785156 32.203125 C 25.640625 34.066406 23.386719 37.1875 21.152344 37.1875 C 20.6875 37.1875 20.25 37.050781 19.816406 36.773438 C 18.8125 36.121094 17.867188 34.863281 17.03125 33.753906 C 16.589844 33.160156 16.167969 32.597656 15.773438 32.179688 C 15.523438 31.914062 15.3125 31.671875 15.128906 31.453125 C 14.488281 30.710938 13.980469 30.121094 12.699219 29.664062 C 12.183594 29.480469 11.566406 29.378906 10.964844 29.378906 C 8.75 29.378906 6.929688 30.648438 5.976562 32.855469 C 4.417969 36.441406 3.078125 44.703125 3 47.484375 C 2.996094 48.191406 3.253906 48.824219 3.75 49.320312 C 4.335938 49.910156 5.183594 50.234375 6.132812 50.234375 C 6.335938 50.234375 6.546875 50.21875 6.757812 50.1875 C 8.757812 49.894531 10.386719 48.265625 10.394531 46.550781 C 10.367188 42.277344 8.625 40.175781 8.734375 37.597656 C 8.832031 35.195312 9.875 31.074219 12.328125 31.539062 C 14.597656 31.972656 15.753906 33.941406 17.460938 38.839844 C 17.609375 39.265625 17.714844 39.574219 17.785156 39.734375 L 17.816406 39.804688 C 18.519531 41.433594 19.707031 44.164062 22.335938 44.164062 C 22.558594 44.164062 22.789062 44.140625 23.023438 44.101562 C 25.78125 43.613281 26.496094 41.355469 27.179688 39.171875 C 27.285156 38.839844 27.390625 38.511719 27.5 38.183594 C 27.851562 37.152344 28.164062 35.945312 28.5 34.664062 C 28.953125 32.921875 29.421875 31.121094 30.003906 29.742188 C 31.007812 27.371094 31.46875 26.34375 32.824219 24.742188 C 33.671875 23.738281 34.859375 23.160156 36.082031 23.160156 C 37.535156 23.160156 38.683594 23.941406 39.003906 25.148438 C 39.207031 25.90625 39.246094 26.796875 39.105469 27.480469 C 38.546875 30.269531 36.492188 34.105469 34.351562 37.832031 C 33.894531 38.628906 33.46875 39.34375 33.089844 39.972656 C 31.375 42.832031 29.015625 46.550781 29.421875 49.082031 C 29.71875 50.949219 36.515625 51.769531 38.441406 51.769531 C 38.6875 51.769531 38.894531 51.730469 39.066406 51.648438 C 40.457031 50.980469 39.753906 48.460938 39.289062 46.792969 C 39.203125 46.496094 39.132812 46.238281 39.101562 46.078125 C 38.691406 44.046875 38.851562 41.710938 39.605469 38.722656 L 39.628906 38.632812 C 40.4375 35.433594 41.273438 32.132812 41.285156 28.910156 C 41.296875 25.902344 40.488281 23.777344 38.882812 22.589844 C 38.261719 22.132812 37.449219 21.890625 36.527344 21.890625 C 34.9375 21.886719 33.226562 22.609375 32.171875 23.726562 " fill-opacity="1" fill-rule="nonzero"/><g clip-path="url(#50a25caec1)"><g clip-path="url(#971694c4cb)"><path fill="#ffffff" d="M 2.996094 21.886719 L 41.292969 21.886719 L 41.292969 51.769531 L 2.996094 51.769531 Z M 2.996094 21.886719 " fill-opacity="1" fill-rule="nonzero"/></g></g><path fill="#ffffff" d="M 46.4375 38.988281 C 46.257812 39.3125 46.09375 39.59375 45.941406 39.835938 C 45.785156 40.078125 45.632812 40.320312 45.472656 40.550781 C 45.316406 40.785156 45.152344 41.023438 44.992188 41.273438 C 44.828125 41.523438 44.648438 41.816406 44.453125 42.152344 C 44.34375 42.308594 44.222656 42.386719 44.101562 42.386719 C 43.980469 42.386719 43.890625 42.304688 43.824219 42.140625 C 43.769531 41.871094 43.707031 41.613281 43.628906 41.371094 C 43.554688 41.128906 43.472656 40.886719 43.382812 40.644531 C 43.296875 40.402344 43.207031 40.148438 43.113281 39.890625 C 43.019531 39.628906 42.933594 39.351562 42.847656 39.058594 C 42.796875 39.261719 42.746094 39.484375 42.703125 39.726562 C 42.65625 39.96875 42.609375 40.207031 42.5625 40.445312 C 42.515625 40.683594 42.476562 40.90625 42.433594 41.121094 C 42.394531 41.335938 42.359375 41.507812 42.328125 41.648438 C 42.46875 41.730469 42.582031 41.832031 42.65625 41.964844 C 42.730469 42.09375 42.761719 42.230469 42.75 42.371094 C 42.734375 42.515625 42.679688 42.652344 42.574219 42.78125 C 42.472656 42.914062 42.324219 43.015625 42.128906 43.089844 C 41.898438 43.175781 41.671875 43.210938 41.445312 43.207031 C 41.21875 43.199219 40.996094 43.175781 40.769531 43.136719 C 40.5625 43.136719 40.402344 43.089844 40.296875 42.996094 C 40.191406 42.902344 40.132812 42.785156 40.121094 42.644531 C 40.109375 42.507812 40.140625 42.363281 40.21875 42.21875 C 40.296875 42.070312 40.414062 41.945312 40.574219 41.839844 C 40.710938 41.746094 40.789062 41.621094 40.808594 41.464844 C 40.855469 41.167969 40.90625 40.859375 40.960938 40.53125 C 41.019531 40.203125 41.078125 39.867188 41.140625 39.527344 C 41.199219 39.183594 41.261719 38.847656 41.316406 38.519531 C 41.371094 38.195312 41.421875 37.878906 41.46875 37.585938 C 41.480469 37.511719 41.472656 37.453125 41.441406 37.402344 C 41.414062 37.355469 41.378906 37.304688 41.339844 37.261719 C 41.269531 37.175781 41.203125 37.085938 41.148438 36.992188 C 41.089844 36.894531 41.058594 36.785156 41.054688 36.660156 C 41.019531 36.449219 41.074219 36.269531 41.214844 36.113281 C 41.359375 35.960938 41.566406 35.867188 41.851562 35.832031 C 42.191406 35.796875 42.5 35.789062 42.773438 35.8125 C 43.050781 35.839844 43.34375 35.863281 43.65625 35.882812 C 43.957031 35.894531 44.148438 36.042969 44.21875 36.324219 C 44.269531 36.53125 44.320312 36.742188 44.371094 36.96875 C 44.417969 37.195312 44.46875 37.429688 44.511719 37.664062 C 44.558594 37.902344 44.601562 38.136719 44.644531 38.367188 C 44.6875 38.601562 44.726562 38.828125 44.757812 39.042969 C 44.832031 38.867188 44.921875 38.664062 45.039062 38.4375 C 45.152344 38.210938 45.269531 37.984375 45.394531 37.75 C 45.515625 37.515625 45.628906 37.292969 45.738281 37.089844 C 45.84375 36.882812 45.9375 36.710938 46.007812 36.582031 C 46.21875 36.160156 46.554688 35.921875 47.019531 35.863281 C 47.171875 35.839844 47.3125 35.828125 47.445312 35.824219 C 47.582031 35.816406 47.710938 35.816406 47.839844 35.820312 C 47.96875 35.820312 48.09375 35.828125 48.222656 35.84375 C 48.351562 35.859375 48.492188 35.871094 48.640625 35.882812 C 48.769531 35.902344 48.886719 35.9375 48.988281 35.984375 C 49.089844 36.035156 49.167969 36.097656 49.226562 36.179688 C 49.28125 36.257812 49.308594 36.347656 49.304688 36.449219 C 49.304688 36.550781 49.261719 36.664062 49.183594 36.789062 C 49.085938 36.941406 48.96875 37.074219 48.835938 37.183594 C 48.765625 37.238281 48.71875 37.292969 48.691406 37.347656 C 48.664062 37.402344 48.644531 37.46875 48.632812 37.539062 C 48.558594 38.027344 48.480469 38.546875 48.390625 39.105469 C 48.304688 39.664062 48.222656 40.183594 48.148438 40.671875 C 48.089844 40.882812 48.074219 41.074219 48.101562 41.246094 C 48.125 41.414062 48.183594 41.578125 48.277344 41.726562 C 48.433594 41.96875 48.464844 42.210938 48.363281 42.449219 C 48.265625 42.691406 48.058594 42.867188 47.746094 42.984375 C 47.410156 43.109375 47.078125 43.179688 46.742188 43.1875 C 46.410156 43.195312 46.089844 43.167969 45.789062 43.09375 C 45.574219 43.042969 45.421875 42.945312 45.332031 42.804688 C 45.242188 42.660156 45.25 42.476562 45.355469 42.246094 C 45.382812 42.1875 45.421875 42.128906 45.476562 42.0625 C 45.527344 42 45.585938 41.9375 45.652344 41.871094 C 45.71875 41.804688 45.785156 41.746094 45.851562 41.691406 C 45.914062 41.640625 45.972656 41.59375 46.027344 41.554688 C 46.074219 41.375 46.109375 41.21875 46.136719 41.082031 C 46.160156 40.945312 46.1875 40.785156 46.210938 40.609375 C 46.234375 40.429688 46.257812 40.214844 46.289062 39.964844 C 46.324219 39.707031 46.371094 39.382812 46.4375 38.988281 Z M 46.4375 38.988281 " fill-opacity="1" fill-rule="nonzero"/><path fill="#ffffff" d="M 53.660156 41.472656 C 53.589844 41.695312 53.5 41.910156 53.398438 42.113281 C 53.296875 42.316406 53.171875 42.496094 53.023438 42.652344 C 52.871094 42.8125 52.691406 42.945312 52.484375 43.054688 C 52.273438 43.160156 52.019531 43.230469 51.726562 43.265625 C 51.402344 43.300781 51.085938 43.316406 50.792969 43.308594 C 50.5 43.296875 50.175781 43.246094 49.828125 43.15625 C 49.617188 43.089844 49.449219 42.996094 49.316406 42.871094 C 49.1875 42.746094 49.085938 42.601562 49.011719 42.4375 C 48.941406 42.273438 48.894531 42.09375 48.875 41.894531 C 48.851562 41.699219 48.851562 41.5 48.875 41.296875 C 48.914062 41 48.964844 40.707031 49.023438 40.410156 C 49.085938 40.113281 49.160156 39.820312 49.234375 39.523438 C 49.355469 39.128906 49.566406 38.792969 49.875 38.507812 C 50.183594 38.226562 50.542969 38.050781 50.949219 37.984375 C 51.308594 37.960938 51.617188 37.945312 51.882812 37.941406 C 52.144531 37.9375 52.410156 37.957031 52.6875 37.996094 C 52.882812 38.042969 53.066406 38.109375 53.226562 38.195312 C 53.390625 38.285156 53.535156 38.390625 53.648438 38.507812 C 53.769531 38.625 53.859375 38.757812 53.925781 38.902344 C 53.988281 39.046875 54.023438 39.199219 54.03125 39.355469 C 54.046875 39.546875 54.042969 39.738281 54.023438 39.925781 C 54 40.117188 53.972656 40.304688 53.933594 40.488281 C 53.894531 40.671875 53.851562 40.851562 53.800781 41.015625 C 53.753906 41.179688 53.707031 41.335938 53.660156 41.472656 Z M 52.214844 39.945312 C 52.234375 39.820312 52.25 39.699219 52.253906 39.578125 C 52.257812 39.460938 52.25 39.359375 52.21875 39.269531 C 52.191406 39.179688 52.140625 39.109375 52.070312 39.0625 C 51.996094 39.011719 51.890625 38.988281 51.753906 38.988281 C 51.566406 39 51.421875 39.074219 51.324219 39.203125 C 51.226562 39.335938 51.144531 39.476562 51.078125 39.625 C 50.972656 39.902344 50.894531 40.199219 50.839844 40.519531 C 50.789062 40.835938 50.742188 41.136719 50.703125 41.417969 C 50.695312 41.621094 50.726562 41.792969 50.792969 41.925781 C 50.859375 42.0625 50.992188 42.128906 51.183594 42.128906 C 51.351562 42.113281 51.496094 42.042969 51.613281 41.910156 C 51.730469 41.78125 51.8125 41.636719 51.859375 41.488281 C 51.945312 41.222656 52.015625 40.957031 52.070312 40.699219 C 52.128906 40.441406 52.175781 40.191406 52.214844 39.945312 Z M 52.214844 39.945312 " fill-opacity="1" fill-rule="nonzero"/><path fill="#ffffff" d="M 54.261719 42.988281 C 54.136719 42.941406 54.054688 42.878906 54.019531 42.800781 C 53.984375 42.71875 53.972656 42.632812 53.988281 42.535156 C 54.003906 42.4375 54.039062 42.335938 54.097656 42.226562 C 54.152344 42.117188 54.210938 42.015625 54.269531 41.925781 C 54.425781 41.714844 54.523438 41.488281 54.566406 41.246094 C 54.601562 41.039062 54.648438 40.835938 54.691406 40.628906 C 54.738281 40.421875 54.78125 40.214844 54.820312 40.003906 C 54.828125 39.949219 54.832031 39.898438 54.835938 39.855469 C 54.839844 39.808594 54.84375 39.761719 54.851562 39.714844 C 54.84375 39.617188 54.824219 39.542969 54.78125 39.496094 C 54.746094 39.445312 54.707031 39.382812 54.675781 39.3125 C 54.566406 39.148438 54.535156 38.980469 54.582031 38.820312 C 54.632812 38.65625 54.753906 38.519531 54.949219 38.40625 C 55.089844 38.339844 55.253906 38.285156 55.445312 38.242188 C 55.640625 38.199219 55.828125 38.183594 56.007812 38.195312 C 56.1875 38.203125 56.339844 38.246094 56.460938 38.328125 C 56.578125 38.40625 56.636719 38.535156 56.632812 38.710938 C 56.640625 38.785156 56.625 38.921875 56.585938 39.125 C 56.550781 39.328125 56.507812 39.5625 56.453125 39.820312 C 56.402344 40.082031 56.347656 40.351562 56.285156 40.625 C 56.226562 40.902344 56.179688 41.148438 56.148438 41.367188 C 56.109375 41.589844 56.140625 41.792969 56.246094 41.976562 C 56.308594 42.085938 56.34375 42.207031 56.339844 42.328125 C 56.335938 42.449219 56.304688 42.5625 56.246094 42.667969 C 56.1875 42.773438 56.105469 42.859375 55.992188 42.933594 C 55.886719 43.003906 55.761719 43.046875 55.617188 43.058594 C 55.347656 43.074219 55.109375 43.082031 54.902344 43.089844 C 54.699219 43.097656 54.484375 43.058594 54.261719 42.988281 Z M 56.84375 36.695312 C 56.882812 36.804688 56.894531 36.917969 56.875 37.03125 C 56.859375 37.140625 56.8125 37.242188 56.753906 37.339844 C 56.691406 37.433594 56.605469 37.511719 56.503906 37.582031 C 56.398438 37.644531 56.285156 37.6875 56.160156 37.710938 C 55.910156 37.730469 55.683594 37.6875 55.476562 37.582031 C 55.265625 37.476562 55.144531 37.308594 55.097656 37.078125 C 55.078125 36.972656 55.082031 36.871094 55.105469 36.765625 C 55.132812 36.667969 55.179688 36.574219 55.25 36.496094 C 55.316406 36.417969 55.398438 36.351562 55.496094 36.300781 C 55.589844 36.25 55.695312 36.214844 55.8125 36.203125 C 56.039062 36.183594 56.242188 36.210938 56.433594 36.289062 C 56.625 36.367188 56.761719 36.503906 56.84375 36.695312 Z M 56.84375 36.695312 " fill-opacity="1" fill-rule="nonzero"/><path fill="#ffffff" d="M 59.46875 38.527344 C 59.515625 38.5 59.554688 38.476562 59.585938 38.457031 C 59.621094 38.4375 59.648438 38.417969 59.675781 38.398438 C 59.828125 38.300781 59.976562 38.214844 60.128906 38.144531 C 60.277344 38.074219 60.4375 38.019531 60.609375 37.972656 C 60.882812 37.921875 61.089844 37.957031 61.222656 38.085938 C 61.355469 38.214844 61.398438 38.414062 61.34375 38.679688 C 61.332031 38.8125 61.300781 38.953125 61.253906 39.09375 C 61.203125 39.238281 61.140625 39.382812 61.070312 39.519531 C 61 39.65625 60.917969 39.785156 60.835938 39.898438 C 60.75 40.011719 60.667969 40.101562 60.585938 40.167969 C 60.507812 40.21875 60.453125 40.222656 60.421875 40.175781 C 60.386719 40.132812 60.359375 40.070312 60.335938 40 C 60.3125 39.925781 60.285156 39.851562 60.253906 39.777344 C 60.226562 39.703125 60.175781 39.65625 60.109375 39.640625 C 60.039062 39.625 59.945312 39.652344 59.820312 39.726562 C 59.691406 39.800781 59.523438 39.949219 59.308594 40.175781 C 59.285156 40.195312 59.273438 40.21875 59.261719 40.246094 C 59.253906 40.269531 59.246094 40.292969 59.238281 40.3125 C 59.203125 40.511719 59.171875 40.707031 59.136719 40.902344 C 59.097656 41.101562 59.066406 41.300781 59.03125 41.503906 C 58.992188 41.621094 59.03125 41.714844 59.140625 41.78125 C 59.285156 41.851562 59.375 41.960938 59.414062 42.097656 C 59.453125 42.238281 59.449219 42.394531 59.394531 42.558594 C 59.335938 42.753906 59.21875 42.894531 59.039062 42.980469 C 58.863281 43.066406 58.660156 43.121094 58.4375 43.136719 C 58.210938 43.15625 57.980469 43.15625 57.746094 43.132812 C 57.511719 43.109375 57.320312 43.089844 57.160156 43.066406 C 57.023438 43.042969 56.917969 42.988281 56.851562 42.910156 C 56.78125 42.832031 56.742188 42.742188 56.730469 42.644531 C 56.722656 42.546875 56.742188 42.445312 56.796875 42.335938 C 56.847656 42.226562 56.925781 42.128906 57.023438 42.035156 C 57.121094 41.949219 57.1875 41.863281 57.226562 41.785156 C 57.265625 41.707031 57.289062 41.613281 57.296875 41.515625 C 57.324219 41.332031 57.363281 41.136719 57.421875 40.925781 C 57.476562 40.722656 57.519531 40.511719 57.558594 40.304688 C 57.59375 40.101562 57.613281 39.902344 57.613281 39.710938 C 57.613281 39.519531 57.574219 39.355469 57.496094 39.21875 C 57.351562 39.09375 57.273438 38.953125 57.265625 38.796875 C 57.253906 38.640625 57.292969 38.507812 57.386719 38.402344 C 57.472656 38.296875 57.5625 38.222656 57.660156 38.175781 C 57.910156 38.078125 58.152344 38.019531 58.382812 38.003906 C 58.617188 37.988281 58.847656 38.003906 59.078125 38.058594 C 59.308594 38.101562 59.4375 38.253906 59.46875 38.527344 Z M 59.46875 38.527344 " fill-opacity="1" fill-rule="nonzero"/><path fill="#ffffff" d="M 66.171875 41.828125 C 66.160156 42.039062 66.105469 42.226562 66.007812 42.398438 C 65.90625 42.570312 65.785156 42.710938 65.636719 42.832031 C 65.492188 42.949219 65.328125 43.039062 65.152344 43.101562 C 64.976562 43.164062 64.808594 43.1875 64.644531 43.175781 C 64.484375 43.164062 64.339844 43.109375 64.210938 43.015625 C 64.078125 42.917969 63.984375 42.777344 63.921875 42.585938 C 63.609375 42.78125 63.285156 42.925781 62.953125 43.003906 C 62.625 43.082031 62.316406 43.101562 62.035156 43.054688 C 61.75 43.003906 61.511719 42.882812 61.316406 42.691406 C 61.121094 42.5 61.003906 42.226562 60.960938 41.875 C 60.929688 41.441406 60.96875 41.007812 61.085938 40.570312 C 61.203125 40.132812 61.382812 39.738281 61.632812 39.382812 C 61.878906 39.027344 62.1875 38.730469 62.558594 38.488281 C 62.929688 38.25 63.351562 38.113281 63.820312 38.074219 C 63.992188 38.082031 64.15625 38.125 64.316406 38.214844 C 64.476562 38.300781 64.621094 38.375 64.742188 38.425781 C 64.855469 38.292969 64.980469 38.207031 65.117188 38.160156 C 65.253906 38.113281 65.394531 38.085938 65.539062 38.074219 C 65.765625 38.058594 65.945312 38.117188 66.074219 38.246094 C 66.199219 38.375 66.246094 38.546875 66.214844 38.761719 C 66.121094 39.277344 66.007812 39.785156 65.875 40.289062 C 65.742188 40.796875 65.636719 41.28125 65.566406 41.738281 C 65.578125 41.785156 65.589844 41.832031 65.59375 41.878906 C 65.601562 41.929688 65.636719 41.957031 65.703125 41.964844 C 65.765625 41.964844 65.8125 41.941406 65.835938 41.894531 C 65.859375 41.851562 65.882812 41.804688 65.910156 41.757812 C 65.929688 41.652344 65.957031 41.582031 65.992188 41.550781 C 66.023438 41.515625 66.054688 41.507812 66.089844 41.523438 C 66.121094 41.539062 66.144531 41.578125 66.164062 41.632812 C 66.1875 41.691406 66.1875 41.753906 66.171875 41.828125 Z M 64.375 39.609375 C 64.292969 39.574219 64.199219 39.550781 64.082031 39.539062 C 63.96875 39.527344 63.851562 39.527344 63.734375 39.539062 C 63.617188 39.550781 63.503906 39.582031 63.40625 39.625 C 63.304688 39.671875 63.222656 39.734375 63.164062 39.8125 C 62.9375 40.042969 62.789062 40.285156 62.707031 40.542969 C 62.625 40.800781 62.609375 41.023438 62.660156 41.214844 C 62.695312 41.367188 62.765625 41.460938 62.878906 41.5 C 62.988281 41.539062 63.113281 41.539062 63.25 41.503906 C 63.390625 41.46875 63.523438 41.40625 63.664062 41.316406 C 63.804688 41.230469 63.910156 41.128906 63.988281 41.023438 C 64.046875 40.75 64.113281 40.503906 64.1875 40.289062 C 64.261719 40.078125 64.328125 39.851562 64.375 39.609375 Z M 64.375 39.609375 " fill-opacity="1" fill-rule="nonzero"/></svg>