<?xml version="1.0" encoding="UTF-8"?>
<svg id="Layer_1" data-name="Layer 1" xmlns="http://www.w3.org/2000/svg" xmlns:xlink="http://www.w3.org/1999/xlink" viewBox="0 0 65.31 58.46">
  <defs>
    <style>
      .cls-1 {
        fill: url(#linear-gradient);
        filter: url(#drop-shadow-1);
      }

      .cls-1, .cls-2, .cls-3 {
        stroke-width: 0px;
      }

      .cls-2 {
        fill: #30b3ff;
        opacity: .9;
      }

      .cls-3 {
        fill: url(#linear-gradient-2);
        filter: url(#drop-shadow-2);
      }
    </style>
    <linearGradient id="linear-gradient" x1="20.34" y1="39.2" x2="44.28" y2="15.26" gradientUnits="userSpaceOnUse">
      <stop offset="0" stop-color="#fff" stop-opacity=".7"/>
      <stop offset="1" stop-color="#fff"/>
    </linearGradient>
    <filter id="drop-shadow-1" filterUnits="userSpaceOnUse">
      <feOffset dx="7" dy="7"/>
      <feGaussianBlur result="blur" stdDeviation="5"/>
      <feFlood flood-color="#000" flood-opacity=".1"/>
      <feComposite in2="blur" operator="in"/>
      <feComposite in="SourceGraphic"/>
    </filter>
    <linearGradient id="linear-gradient-2" x1="21.05" y1="38.76" x2="35.85" y2="23.96" xlink:href="#linear-gradient"/>
    <filter id="drop-shadow-2" filterUnits="userSpaceOnUse">
      <feOffset dx="7" dy="7"/>
      <feGaussianBlur result="blur-2" stdDeviation="5"/>
      <feFlood flood-color="#000" flood-opacity=".1"/>
      <feComposite in2="blur-2" operator="in"/>
      <feComposite in="SourceGraphic"/>
    </filter>
  </defs>
  <g>
    <path class="cls-1" d="m52.41,27.53c0,5.46-4.42,9.99-9.88,9.99h-19.75c-5.46,0-9.88-4.37-9.88-9.83,0-2.73,1.11-5.17,2.89-6.96,1.13-1.13,2.52-1.97,4.07-2.45.52-4.97,4.72-8.98,9.82-8.98s9.05,3.45,9.77,8.24h3.07c5.46,0,9.88,4.53,9.88,9.99Z"/>
    <path class="cls-3" d="m40.87,31.55c0,3.37-2.73,6.17-6.1,6.17h-12.21c-3.37,0-6.1-2.7-6.1-6.08,0-1.68.68-3.2,1.79-4.3.7-.7,1.56-1.22,2.52-1.51.32-3.07,2.92-5.55,6.07-5.55s5.59,2.13,6.04,5.1h1.9c3.37,0,6.1,2.8,6.1,6.17Z"/>
  </g>
  <path class="cls-2" d="m23.95,45.48c-.64.7-1.62.85-2.2.32s-.53-1.52.1-2.22c.42-.46,1.68-.93,2.48-1.2.35-.12.64.15.56.51-.19.83-.53,2.12-.95,2.59Z"/>
  <path class="cls-2" d="m40.87,43.86c-.64.7-1.62.85-2.2.32s-.53-1.52.1-2.22c.42-.46,1.68-.93,2.48-1.2.35-.12.64.15.56.51-.19.83-.53,2.12-.95,2.59Z"/>
  <path class="cls-2" d="m32.86,48.72c-.44.48-1.12.58-1.51.22s-.37-1.05.07-1.53c.29-.32,1.16-.64,1.71-.83.24-.08.44.1.39.35-.13.57-.37,1.46-.65,1.78Z"/>
  <path class="cls-2" d="m31.64,43.73c-.55.6-1.39.73-1.88.28s-.46-1.3.09-1.9c.36-.4,1.44-.8,2.13-1.03.3-.1.55.13.48.44-.16.71-.46,1.82-.82,2.22Z"/>
</svg>