<?xml version="1.0" encoding="UTF-8"?>
<svg id="Layer_1" data-name="Layer 1" xmlns="http://www.w3.org/2000/svg" viewBox="0 0 2551.18 486.93">
  <defs>
    <style>
      .cls-1 {
        fill: #53c3d9;
      }

      .cls-1, .cls-2, .cls-3, .cls-4 {
        stroke-width: 0px;
      }

      .cls-2 {
        fill: #17adc6;
      }

      .cls-3 {
        fill: #179ab9;
      }

      .cls-4 {
        fill: #fff;
      }
    </style>
  </defs>
  <path class="cls-3" d="m2551.18,154.9v313.78H0V154.9c116.86,37.83,296.69,45.77,533.51-91.06h.2s244.36,242.04,590.83,0c0,0,230.07,213.66,507.92,0,0,0,155.16,203.49,426.47,0,0,0,157.02,188.49,334.07,0,0,0,54.13,57.38,158.17,91.06Z"/>
  <path class="cls-2" d="m0,209.5v234.54h2551.18v-234.54c-88.34,5.01-212-22.59-382.84-121.03h-.57c-7.33,8.94-199.12,237.44-478.87,0h-.54c-7.27,8.78-193.83,229.13-435.83,0,0,0-305.2,234.64-541.2,0h-.51c-7.95,8.96-216.4,238.5-507.95,0h-.44c-2.56,6.05-49.63,112.35-202.45,121.03Z"/>
  <path class="cls-1" d="m2551.18,254.22v234.54H0v-234.54c88.34,5.01,212-22.59,382.84-121.03h.57c7.33,8.94,199.12,237.44,478.87,0h.54c7.27,8.78,193.83,229.13,435.83,0,0,0,305.2,234.64,541.2,0h.51c7.95,8.96,216.4,238.5,507.95,0h.44c2.56,6.05,49.63,112.35,202.45,121.03Z"/>
  <path class="cls-4" d="m383.3,132.92s-.05.03-.08.04h0s-.03-.04-.03-.04h.11Z"/>
  <path class="cls-4" d="m383.3,132.92s-.05.03-.08.04h0s-.03-.04-.03-.04h.11Z"/>
</svg>