<?xml version="1.0" encoding="UTF-8"?>
<svg id="Layer_1" data-name="Layer 1" xmlns="http://www.w3.org/2000/svg" xmlns:xlink="http://www.w3.org/1999/xlink" viewBox="0 0 65.31 58.46">
  <defs>
    <style>
      .cls-1 {
        fill: url(#linear-gradient);
        filter: url(#drop-shadow-1);
      }

      .cls-1, .cls-2, .cls-3 {
        stroke-width: 0px;
      }

      .cls-2 {
        fill: #fff;
        opacity: .9;
      }

      .cls-3 {
        fill: url(#linear-gradient-2);
        filter: url(#drop-shadow-2);
      }
    </style>
    <linearGradient id="linear-gradient" x1="20.34" y1="40.38" x2="44.28" y2="16.44" gradientUnits="userSpaceOnUse">
      <stop offset="0" stop-color="#fff" stop-opacity=".7"/>
      <stop offset="1" stop-color="#fff"/>
    </linearGradient>
    <filter id="drop-shadow-1" filterUnits="userSpaceOnUse">
      <feOffset dx="7" dy="7"/>
      <feGaussianBlur result="blur" stdDeviation="5"/>
      <feFlood flood-color="#000" flood-opacity=".1"/>
      <feComposite in2="blur" operator="in"/>
      <feComposite in="SourceGraphic"/>
    </filter>
    <linearGradient id="linear-gradient-2" x1="20.25" y1="39.95" x2="35.05" y2="25.15" xlink:href="#linear-gradient"/>
    <filter id="drop-shadow-2" filterUnits="userSpaceOnUse">
      <feOffset dx="7" dy="7"/>
      <feGaussianBlur result="blur-2" stdDeviation="5"/>
      <feFlood flood-color="#000" flood-opacity=".1"/>
      <feComposite in2="blur-2" operator="in"/>
      <feComposite in="SourceGraphic"/>
    </filter>
  </defs>
  <path class="cls-1" d="m52.41,28.72c0,5.46-4.42,9.99-9.88,9.99h-19.75c-5.46,0-9.88-4.37-9.88-9.83,0-2.73,1.11-5.17,2.89-6.96,1.13-1.13,2.52-1.97,4.07-2.45.52-4.97,4.72-8.98,9.82-8.98s9.05,3.45,9.77,8.24h3.07c5.46,0,9.88,4.53,9.88,9.99Z"/>
  <path class="cls-3" d="m40.07,32.74c0,3.37-2.73,6.17-6.1,6.17h-12.21c-3.37,0-6.1-2.7-6.1-6.08,0-1.68.68-3.2,1.79-4.3.7-.7,1.56-1.22,2.52-1.51.32-3.07,2.92-5.55,6.07-5.55s5.59,2.13,6.04,5.1h1.9c3.37,0,6.1,2.8,6.1,6.17Z"/>
  <path class="cls-2" d="m22.15,42.99s.26,0,.71-.03c.45-.02,1.08-.04,1.83-.09.75-.05,1.61-.12,2.5-.26.45-.07.9-.16,1.35-.26.45-.11.9-.25,1.33-.41l.77-.24c.29-.06.59-.12.87-.16.55-.06,1.09-.05,1.6,0,1.02.11,1.93.41,2.66.74.73.34,1.29.7,1.66.98.38.28.56.48.56.48,0,0-.25-.06-.7-.15-.44-.09-1.06-.22-1.79-.32-.73-.1-1.58-.18-2.45-.16-.22,0-.44.03-.66.04-.22.02-.44.07-.66.09-.21.04-.4.1-.61.14l-.69.23c-.26.08-.53.18-.79.25-.27.06-.53.13-.79.17-.53.09-1.05.14-1.55.14-1,.02-1.92-.11-2.69-.29-.77-.18-1.39-.4-1.81-.58-.42-.18-.65-.32-.65-.32Z"/>
  <path class="cls-2" d="m47.22,46.96s-.26-.02-.71-.05c-.45-.04-1.08-.08-1.83-.16-.74-.08-1.6-.18-2.49-.35-.44-.09-.89-.19-1.34-.32-.45-.13-.89-.28-1.32-.46l-.76-.27c-.28-.07-.58-.14-.86-.19-.55-.08-1.09-.09-1.6-.06-1.03.07-1.94.34-2.68.64-.74.31-1.32.65-1.7.92-.39.27-.58.46-.58.46,0,0,.26-.05.7-.13.44-.07,1.07-.18,1.81-.25.74-.07,1.58-.12,2.46-.07.22.01.44.05.66.07.22.03.44.08.66.11.21.05.4.11.6.16l.68.25c.26.09.52.2.78.28.26.07.53.15.79.2.52.11,1.04.17,1.54.2,1,.05,1.92-.04,2.7-.18.77-.15,1.4-.35,1.83-.51.43-.16.67-.29.67-.29Z"/>
</svg>